<?xml version="1.0" standalone="no"?>
<!DOCTYPE svg PUBLIC "-//W3C//DTD SVG 20010904//EN"
 "http://www.w3.org/TR/2001/REC-SVG-20010904/DTD/svg10.dtd">
<svg version="1.0" xmlns="http://www.w3.org/2000/svg"
 width="4192.000000pt" height="6667.000000pt" viewBox="0 0 4192.000000 6667.000000"
 preserveAspectRatio="xMidYMid meet">

<g transform="translate(0.000000,6667.000000) scale(0.100000,-0.100000)"
fill="#000000" stroke="none">
<path d="M20708 50341 c-169 -99 -404 -303 -540 -469 -343 -418 -524 -949
-581 -1704 l-13 -168 258 0 258 0 0 125 0 125 308 0 c764 0 2462 -71 2675
-112 93 -17 91 -22 95 257 l3 235 -53 0 c-170 0 -2653 -74 -2902 -86 l-129 -6
6 188 c5 207 28 357 92 599 80 309 148 434 412 762 134 168 193 252 193 278 0
22 -8 20 -82 -24z m-318 -358 c0 -5 -23 -46 -50 -93 -152 -257 -227 -462 -280
-773 -24 -141 -51 -392 -53 -498 -2 -87 12 -113 67 -124 57 -11 87 -28 101
-56 34 -65 3 -118 -82 -138 -74 -18 -86 -36 -92 -136 -4 -46 -12 -90 -19 -97
-15 -15 -117 -27 -234 -27 -78 -1 -88 1 -88 17 0 67 34 419 50 522 62 385 205
790 360 1022 143 212 320 423 320 381z m2730 -1611 l0 -168 -152 17 c-270 30
-753 52 -1528 69 -851 19 -1097 32 -1151 61 -19 10 -35 69 -25 94 9 23 46 34
163 45 160 15 1493 41 2476 48 l217 2 0 -168z"/>
<path d="M20275 47870 l-1480 -5 -390 -171 c-610 -268 -951 -431 -989 -473
-17 -19 -16 -20 76 -49 124 -40 521 -154 843 -242 425 -116 736 -210 831 -250
l43 -19 -14 -41 c-8 -23 -73 -162 -145 -310 -71 -147 -130 -273 -130 -278 0
-6 17 -15 38 -19 49 -11 3956 -10 4005 0 48 10 52 -12 -63 302 -49 133 -91
257 -95 277 -6 34 -5 36 22 42 58 12 271 26 626 41 489 20 559 31 730 109 250
114 837 616 837 715 0 29 -260 48 -770 56 -195 3 -374 8 -396 11 -41 5 -42 6
-140 159 l-99 155 -930 -2 c-511 -2 -1596 -5 -2410 -8z m3311 -107 c84 -152
174 -257 233 -273 62 -16 269 -30 456 -30 192 -1 509 -15 563 -26 20 -4 32
-12 32 -23 0 -25 -158 -171 -304 -280 -231 -174 -387 -268 -501 -304 -174 -55
-503 -82 -1073 -89 l-234 -3 -60 153 -59 152 -1612 0 -1612 0 -52 -103 c-56
-114 -95 -167 -123 -167 -26 0 -1173 311 -1500 407 -85 25 -161 49 -168 53
-16 8 2 16 768 346 l585 252 2312 1 2311 1 38 -67z m-1802 -821 l809 -7 83
-230 c122 -334 196 -563 192 -593 -4 -35 -26 -40 -258 -53 -260 -14 -2885 -14
-3243 0 -283 12 -317 15 -317 36 0 22 37 100 227 486 l185 376 757 -5 c416 -2
1120 -7 1565 -10z"/>
</g>
</svg>
