<?xml version="1.0" standalone="no"?>
<!DOCTYPE svg PUBLIC "-//W3C//DTD SVG 20010904//EN"
 "http://www.w3.org/TR/2001/REC-SVG-20010904/DTD/svg10.dtd">
<svg version="1.0" xmlns="http://www.w3.org/2000/svg"
 width="4192.000000pt" height="6667.000000pt" viewBox="0 0 4192.000000 6667.000000"
 preserveAspectRatio="xMidYMid meet">

<g transform="translate(0.000000,6667.000000) scale(0.100000,-0.100000)"
fill="#000000" stroke="none">
<path d="M19574 17329 c-72 -9 -154 -56 -259 -149 -49 -44 -110 -93 -135 -109
-96 -62 -96 -64 -46 -264 65 -258 85 -497 93 -1107 6 -469 -5 -810 -32 -1057
-16 -140 -27 -198 -74 -376 -34 -131 -38 -174 -17 -203 13 -17 27 -19 123 -18
93 0 119 4 183 29 158 59 283 155 300 230 14 59 12 415 -5 795 -37 846 -4
1505 87 1749 25 67 143 190 229 239 277 158 716 1 947 -340 56 -82 110 -205
122 -279 17 -101 8 -417 -14 -485 -44 -137 -152 -210 -332 -221 -180 -12 -309
69 -327 205 -6 53 -28 79 -77 93 -87 26 -206 -53 -236 -159 -24 -82 -16 -196
19 -254 57 -98 148 -139 322 -145 262 -10 500 80 693 262 234 220 352 492 355
820 2 159 -4 175 -114 338 -44 65 -79 120 -77 122 18 18 227 88 290 97 248 35
573 -99 737 -304 64 -80 143 -237 177 -353 20 -70 27 -120 31 -224 6 -154 -4
-217 -50 -304 -37 -71 -81 -110 -167 -151 -62 -30 -70 -31 -195 -31 -125 0
-132 1 -184 30 -62 34 -101 85 -101 133 0 46 -26 97 -56 111 -89 40 -216 -19
-258 -121 -46 -110 26 -323 131 -389 158 -100 527 -35 802 141 256 164 435
510 448 870 8 205 -21 297 -131 417 -147 161 -361 273 -637 335 -90 20 -131
23 -304 23 -251 0 -305 -13 -521 -121 l-152 -76 -138 71 c-199 102 -206 103
-547 109 -404 6 -417 3 -608 -139 -58 -44 -109 -79 -113 -79 -3 0 -6 44 -6 98
0 67 -4 104 -14 117 -16 22 -89 33 -162 24z m38 -230 c9 -116 12 -549 12
-1492 0 -1229 -1 -1328 -17 -1344 -9 -9 -19 -14 -22 -11 -20 20 -27 311 -32
1355 -5 1269 4 1700 38 1666 5 -5 15 -83 21 -174z"/>
</g>
</svg>
