<?xml version="1.0" standalone="no"?>
<!DOCTYPE svg PUBLIC "-//W3C//DTD SVG 20010904//EN"
 "http://www.w3.org/TR/2001/REC-SVG-20010904/DTD/svg10.dtd">
<svg version="1.0" xmlns="http://www.w3.org/2000/svg"
 width="4192.000000pt" height="6667.000000pt" viewBox="0 0 4192.000000 6667.000000"
 preserveAspectRatio="xMidYMid meet">

<g transform="translate(0.000000,6667.000000) scale(0.100000,-0.100000)"
fill="#000000" stroke="none">
<path d="M20946 59419 c-51 -60 -75 -203 -76 -443 l0 -109 -157 154 c-149 145
-240 219 -270 219 -46 0 23 -96 200 -277 117 -119 144 -152 130 -156 -10 -3
-65 -8 -123 -12 -210 -13 -382 -47 -412 -82 -28 -33 -28 -51 -2 -82 51 -61
189 -91 420 -91 l147 0 -142 -145 c-149 -153 -231 -255 -231 -286 0 -25 10
-24 56 7 57 39 88 66 241 211 l140 132 26 -277 c26 -268 67 -761 67 -807 0
-19 -30 -42 -165 -126 -282 -176 -451 -317 -775 -646 -537 -544 -822 -939
-1160 -1608 -205 -405 -299 -647 -380 -975 -24 -96 -44 -177 -46 -179 -5 -6
-74 40 -151 101 -106 85 -199 142 -326 204 -154 74 -299 119 -495 154 -238 43
-222 41 -222 25 0 -8 132 -149 293 -313 329 -335 428 -456 512 -627 82 -166
124 -332 164 -640 32 -243 43 -414 32 -481 -5 -35 -30 -101 -60 -163 -28 -57
-51 -118 -51 -135 0 -37 47 -111 111 -175 353 -352 1603 -571 3029 -530 1170
33 2045 198 2407 455 190 135 207 272 60 486 -31 46 -48 83 -53 115 -15 100
23 463 72 681 34 153 66 247 123 368 110 230 241 389 615 744 124 118 226 217
226 220 0 10 -265 -27 -365 -51 -233 -56 -421 -141 -643 -289 -84 -57 -154
-101 -156 -99 -2 2 -20 74 -41 159 -75 307 -188 594 -384 975 -243 473 -474
825 -764 1166 -294 344 -675 717 -922 901 -44 33 -153 105 -243 161 l-163 100
6 56 c3 31 12 148 20 261 9 113 22 273 30 355 8 83 19 204 25 270 17 191 0
188 163 28 194 -191 298 -266 289 -208 -6 35 -82 126 -229 276 l-144 146 193
6 c194 5 253 15 332 52 53 25 72 57 56 94 -21 52 -132 82 -365 101 -77 6 -155
13 -173 16 l-34 5 154 157 c136 139 218 238 218 264 0 4 -9 8 -19 8 -31 0
-133 -82 -286 -231 l-145 -142 0 144 c0 217 -24 346 -77 417 -33 45 -63 42
-107 -9z m80 -124 c24 -59 36 -224 24 -348 -16 -171 -34 -221 -64 -175 -40 63
-48 426 -11 516 9 23 21 42 27 42 5 0 16 -16 24 -35z m-162 -603 c46 -8 56
-26 25 -42 -63 -34 -324 -52 -440 -30 -225 42 -80 94 231 84 80 -3 163 -8 184
-12z m751 0 c25 -5 41 -13 43 -24 12 -60 -407 -76 -538 -21 -33 13 -34 15 -16
28 10 8 41 16 70 19 28 3 65 8 81 10 41 6 310 -3 360 -12z m-589 -147 c24 -59
36 -224 24 -348 -16 -171 -34 -221 -64 -175 -40 63 -48 426 -11 516 9 23 21
42 27 42 5 0 16 -16 24 -35z m-83 -1942 c9 -886 8 -1543 -3 -1762 l-9 -183
-47 -50 c-63 -67 -129 -212 -214 -466 -108 -325 -200 -709 -256 -1070 -10 -61
-21 -109 -24 -105 -4 5 -34 89 -68 188 -104 308 -207 513 -335 665 -112 134
-242 199 -339 171 -186 -54 -246 -213 -333 -886 -20 -154 -39 -288 -43 -299
-6 -15 -18 -2 -60 67 -86 140 -190 284 -369 509 -313 392 -315 397 -279 638
52 342 330 970 657 1482 164 257 406 580 600 800 204 231 510 523 699 668 81
62 399 278 411 279 3 1 9 -290 12 -646z m292 539 c196 -125 489 -366 690 -567
443 -442 874 -1044 1175 -1640 207 -408 351 -809 350 -972 -1 -108 -46 -187
-238 -418 -187 -224 -297 -370 -444 -589 -71 -106 -129 -183 -132 -175 -2 8
-9 86 -16 174 -44 628 -137 942 -303 1027 -31 15 -54 19 -97 16 -213 -15 -433
-295 -590 -753 -29 -82 -58 -161 -65 -176 -18 -34 -41 -53 -50 -40 -3 6 -10
73 -15 148 -12 175 -47 373 -111 632 -85 346 -189 651 -256 751 -15 24 -33 52
-40 64 -33 60 -36 161 -40 1399 l-4 1228 58 -32 c32 -18 89 -53 128 -77z
m-182 -2609 c88 -121 140 -252 215 -548 91 -356 149 -697 182 -1058 11 -126
20 -231 20 -233 0 -2 -228 -4 -507 -4 l-506 0 6 128 c12 267 146 912 263 1272
79 241 218 490 274 490 10 0 34 -21 53 -47z m3417 -293 c0 -6 -82 -95 -183
-198 -252 -259 -349 -387 -455 -598 -133 -265 -194 -535 -207 -909 -7 -205
-10 -225 -30 -225 -8 0 -74 20 -147 44 -254 85 -607 180 -710 192 -32 4 -63
13 -70 21 -28 34 47 175 250 466 264 380 581 713 862 906 113 78 246 153 339
193 56 23 322 113 349 118 1 0 2 -5 2 -10z m-6765 -76 c247 -98 351 -157 535
-305 218 -174 443 -401 640 -648 99 -123 296 -415 354 -524 62 -117 53 -130
-112 -163 -184 -37 -471 -129 -694 -224 -81 -35 -104 -37 -116 -12 -5 9 -12
114 -16 232 -13 403 -58 626 -181 886 -100 213 -204 351 -457 612 -98 100
-178 189 -178 198 0 26 66 11 225 -52z m4584 -253 c107 -55 177 -245 228 -621
12 -90 17 -201 17 -397 1 -320 3 -312 -85 -294 -74 15 -276 37 -504 56 -222
18 -285 29 -319 56 -54 42 -43 117 69 453 181 550 412 840 594 747z m-2480
-25 c93 -47 170 -149 276 -364 107 -215 232 -577 242 -700 7 -76 -5 -104 -56
-125 -55 -24 -58 -24 -332 -52 -140 -14 -316 -34 -390 -45 -74 -11 -142 -20
-153 -20 -18 0 -18 11 -13 293 7 361 29 545 93 766 27 93 74 194 107 230 53
57 134 63 226 17z m1781 -1295 c771 -39 947 -60 1365 -168 284 -73 563 -182
677 -264 25 -19 64 -55 86 -79 82 -94 83 -128 10 -200 -29 -29 -60 -56 -70
-61 -16 -9 -17 -7 -8 16 14 38 12 130 -4 168 -60 144 -475 320 -1018 431 -243
50 -370 64 -686 77 -331 13 -1825 6 -2042 -10 -455 -34 -681 -75 -1033 -191
-405 -134 -537 -241 -537 -436 0 -61 -10 -71 -45 -48 -69 45 -85 139 -37 215
85 133 296 251 598 334 253 70 765 161 1169 209 72 9 144 18 160 20 54 8 1205
-3 1415 -13z m-110 -111 c1262 -64 2164 -324 2089 -602 -54 -203 -685 -404
-1509 -482 -787 -75 -1704 -67 -2354 19 -463 62 -799 151 -1071 284 -257 126
-292 209 -143 346 230 213 1014 385 1983 434 234 12 780 12 1005 1z"/>
</g>
</svg>
