<?xml version="1.0" standalone="no"?>
<!DOCTYPE svg PUBLIC "-//W3C//DTD SVG 20010904//EN"
 "http://www.w3.org/TR/2001/REC-SVG-20010904/DTD/svg10.dtd">
<svg version="1.0" xmlns="http://www.w3.org/2000/svg"
 width="4192.000000pt" height="6667.000000pt" viewBox="0 0 4192.000000 6667.000000"
 preserveAspectRatio="xMidYMid meet">

<g transform="translate(0.000000,6667.000000) scale(0.100000,-0.100000)"
fill="#000000" stroke="none">
<path d="M2932 64175 c-79 -17 -254 -100 -339 -161 -143 -102 -282 -326 -345
-559 -26 -94 -35 -260 -18 -321 20 -70 97 -181 184 -261 60 -56 102 -84 189
-127 341 -168 771 -163 1117 15 91 47 139 81 270 197 46 41 60 50 60 35 0 -10
-9 -175 -20 -367 -27 -476 -54 -721 -100 -921 -10 -44 -28 -126 -39 -183 -25
-123 -20 -142 37 -142 50 1 107 27 235 112 l109 72 -5 1290 c-2 710 -8 1301
-12 1314 -12 37 -44 26 -114 -41 -45 -42 -100 -80 -171 -117 -79 -41 -106 -60
-108 -77 -2 -12 11 -57 28 -100 43 -106 60 -203 60 -339 0 -286 -30 -384 -149
-497 -82 -77 -135 -114 -229 -162 -272 -136 -580 -58 -832 212 -188 202 -254
520 -149 725 32 63 104 133 162 159 79 35 193 33 268 -4 75 -36 134 -100 142
-155 9 -52 33 -66 99 -60 84 9 132 58 149 155 8 43 8 81 0 128 -17 113 -51
150 -166 179 -73 19 -226 20 -313 1z"/>
<path d="M37632 63684 c-13 -9 -74 -57 -135 -106 -62 -49 -131 -101 -154 -115
-25 -14 -43 -32 -43 -43 0 -9 17 -39 39 -66 71 -91 94 -159 111 -344 21 -212
-7 -460 -79 -710 -78 -271 -78 -272 17 -252 139 29 286 132 312 218 6 22 16
154 21 294 18 488 29 584 84 696 51 104 226 231 370 269 124 32 288 14 408
-46 294 -148 471 -448 453 -770 -9 -164 -60 -257 -178 -319 -53 -28 -76 -35
-143 -38 -134 -7 -206 35 -264 153 -54 112 -123 149 -191 103 -53 -36 -82 -97
-88 -184 -6 -103 11 -158 67 -214 62 -61 133 -83 261 -83 362 1 694 274 830
681 110 331 15 569 -300 747 -195 110 -285 130 -590 130 -310 0 -305 1 -592
-176 -70 -44 -130 -79 -133 -79 -3 0 -5 52 -5 116 0 63 -5 124 -10 135 -13 23
-38 24 -68 3z"/>
</g>
</svg>
