<?xml version="1.0" standalone="no"?>
<!DOCTYPE svg PUBLIC "-//W3C//DTD SVG 20010904//EN"
 "http://www.w3.org/TR/2001/REC-SVG-20010904/DTD/svg10.dtd">
<svg version="1.0" xmlns="http://www.w3.org/2000/svg"
 width="4192.000000pt" height="6667.000000pt" viewBox="0 0 4192.000000 6667.000000"
 preserveAspectRatio="xMidYMid meet">

<g transform="translate(0.000000,6667.000000) scale(0.100000,-0.100000)"
fill="#000000" stroke="none">
<path d="M20946 59419 c-51 -60 -75 -203 -76 -443 l0 -109 -157 154 c-149 145
-240 219 -270 219 -46 0 23 -96 200 -277 117 -119 144 -152 130 -156 -10 -3
-65 -8 -123 -12 -210 -13 -382 -47 -412 -82 -28 -33 -28 -51 -2 -82 51 -61
189 -91 420 -91 l147 0 -142 -145 c-149 -153 -231 -255 -231 -286 0 -25 10
-24 56 7 57 39 88 66 241 211 l140 132 26 -277 c26 -268 67 -761 67 -807 0
-19 -30 -42 -165 -126 -282 -176 -451 -317 -775 -646 -537 -544 -822 -939
-1160 -1608 -205 -405 -299 -647 -380 -975 -24 -96 -44 -177 -46 -179 -5 -6
-74 40 -151 101 -106 85 -199 142 -326 204 -154 74 -299 119 -495 154 -238 43
-222 41 -222 25 0 -8 132 -149 293 -313 329 -335 428 -456 512 -627 82 -166
124 -332 164 -640 32 -243 43 -414 32 -481 -5 -35 -30 -101 -60 -163 -28 -57
-51 -118 -51 -135 0 -37 47 -111 111 -175 353 -352 1603 -571 3029 -530 1170
33 2045 198 2407 455 190 135 207 272 60 486 -31 46 -48 83 -53 115 -15 100
23 463 72 681 34 153 66 247 123 368 110 230 241 389 615 744 124 118 226 217
226 220 0 10 -265 -27 -365 -51 -233 -56 -421 -141 -643 -289 -84 -57 -154
-101 -156 -99 -2 2 -20 74 -41 159 -75 307 -188 594 -384 975 -243 473 -474
825 -764 1166 -294 344 -675 717 -922 901 -44 33 -153 105 -243 161 l-163 100
6 56 c3 31 12 148 20 261 9 113 22 273 30 355 8 83 19 204 25 270 17 191 0
188 163 28 194 -191 298 -266 289 -208 -6 35 -82 126 -229 276 l-144 146 193
6 c194 5 253 15 332 52 53 25 72 57 56 94 -21 52 -132 82 -365 101 -77 6 -155
13 -173 16 l-34 5 154 157 c136 139 218 238 218 264 0 4 -9 8 -19 8 -31 0
-133 -82 -286 -231 l-145 -142 0 144 c0 217 -24 346 -77 417 -33 45 -63 42
-107 -9z m80 -124 c24 -59 36 -224 24 -348 -16 -171 -34 -221 -64 -175 -40 63
-48 426 -11 516 9 23 21 42 27 42 5 0 16 -16 24 -35z m-162 -603 c46 -8 56
-26 25 -42 -63 -34 -324 -52 -440 -30 -225 42 -80 94 231 84 80 -3 163 -8 184
-12z m751 0 c25 -5 41 -13 43 -24 12 -60 -407 -76 -538 -21 -33 13 -34 15 -16
28 10 8 41 16 70 19 28 3 65 8 81 10 41 6 310 -3 360 -12z m-589 -147 c24 -59
36 -224 24 -348 -16 -171 -34 -221 -64 -175 -40 63 -48 426 -11 516 9 23 21
42 27 42 5 0 16 -16 24 -35z m-83 -1942 c9 -886 8 -1543 -3 -1762 l-9 -183
-47 -50 c-63 -67 -129 -212 -214 -466 -108 -325 -200 -709 -256 -1070 -10 -61
-21 -109 -24 -105 -4 5 -34 89 -68 188 -104 308 -207 513 -335 665 -112 134
-242 199 -339 171 -186 -54 -246 -213 -333 -886 -20 -154 -39 -288 -43 -299
-6 -15 -18 -2 -60 67 -86 140 -190 284 -369 509 -313 392 -315 397 -279 638
52 342 330 970 657 1482 164 257 406 580 600 800 204 231 510 523 699 668 81
62 399 278 411 279 3 1 9 -290 12 -646z m292 539 c196 -125 489 -366 690 -567
443 -442 874 -1044 1175 -1640 207 -408 351 -809 350 -972 -1 -108 -46 -187
-238 -418 -187 -224 -297 -370 -444 -589 -71 -106 -129 -183 -132 -175 -2 8
-9 86 -16 174 -44 628 -137 942 -303 1027 -31 15 -54 19 -97 16 -213 -15 -433
-295 -590 -753 -29 -82 -58 -161 -65 -176 -18 -34 -41 -53 -50 -40 -3 6 -10
73 -15 148 -12 175 -47 373 -111 632 -85 346 -189 651 -256 751 -15 24 -33 52
-40 64 -33 60 -36 161 -40 1399 l-4 1228 58 -32 c32 -18 89 -53 128 -77z
m-182 -2609 c88 -121 140 -252 215 -548 91 -356 149 -697 182 -1058 11 -126
20 -231 20 -233 0 -2 -228 -4 -507 -4 l-506 0 6 128 c12 267 146 912 263 1272
79 241 218 490 274 490 10 0 34 -21 53 -47z m3417 -293 c0 -6 -82 -95 -183
-198 -252 -259 -349 -387 -455 -598 -133 -265 -194 -535 -207 -909 -7 -205
-10 -225 -30 -225 -8 0 -74 20 -147 44 -254 85 -607 180 -710 192 -32 4 -63
13 -70 21 -28 34 47 175 250 466 264 380 581 713 862 906 113 78 246 153 339
193 56 23 322 113 349 118 1 0 2 -5 2 -10z m-6765 -76 c247 -98 351 -157 535
-305 218 -174 443 -401 640 -648 99 -123 296 -415 354 -524 62 -117 53 -130
-112 -163 -184 -37 -471 -129 -694 -224 -81 -35 -104 -37 -116 -12 -5 9 -12
114 -16 232 -13 403 -58 626 -181 886 -100 213 -204 351 -457 612 -98 100
-178 189 -178 198 0 26 66 11 225 -52z m4584 -253 c107 -55 177 -245 228 -621
12 -90 17 -201 17 -397 1 -320 3 -312 -85 -294 -74 15 -276 37 -504 56 -222
18 -285 29 -319 56 -54 42 -43 117 69 453 181 550 412 840 594 747z m-2480
-25 c93 -47 170 -149 276 -364 107 -215 232 -577 242 -700 7 -76 -5 -104 -56
-125 -55 -24 -58 -24 -332 -52 -140 -14 -316 -34 -390 -45 -74 -11 -142 -20
-153 -20 -18 0 -18 11 -13 293 7 361 29 545 93 766 27 93 74 194 107 230 53
57 134 63 226 17z m1781 -1295 c771 -39 947 -60 1365 -168 284 -73 563 -182
677 -264 25 -19 64 -55 86 -79 82 -94 83 -128 10 -200 -29 -29 -60 -56 -70
-61 -16 -9 -17 -7 -8 16 14 38 12 130 -4 168 -60 144 -475 320 -1018 431 -243
50 -370 64 -686 77 -331 13 -1825 6 -2042 -10 -455 -34 -681 -75 -1033 -191
-405 -134 -537 -241 -537 -436 0 -61 -10 -71 -45 -48 -69 45 -85 139 -37 215
85 133 296 251 598 334 253 70 765 161 1169 209 72 9 144 18 160 20 54 8 1205
-3 1415 -13z m-110 -111 c1262 -64 2164 -324 2089 -602 -54 -203 -685 -404
-1509 -482 -787 -75 -1704 -67 -2354 19 -463 62 -799 151 -1071 284 -257 126
-292 209 -143 346 230 213 1014 385 1983 434 234 12 780 12 1005 1z"/>
<path d="M17848 56706 c-5 -43 -8 -118 -8 -165 0 -97 -16 -256 -29 -278 -9
-18 -59 21 -203 155 -113 106 -173 152 -200 152 -47 0 -3 -71 143 -227 56 -59
114 -125 131 -145 l29 -38 -23 -9 c-40 -17 -164 -31 -341 -39 -142 -5 -161 -8
-107 -13 36 -4 133 -7 216 -8 83 0 186 -4 228 -8 l77 -6 -139 -141 c-76 -78
-154 -161 -174 -186 -41 -52 -70 -105 -62 -113 20 -20 117 55 290 225 l151
149 6 -83 c4 -46 10 -164 14 -263 8 -205 20 -193 22 21 0 77 4 182 8 233 l6
92 141 -139 c148 -145 211 -199 262 -225 53 -27 53 -5 0 73 -16 25 -99 115
-183 201 l-153 156 92 7 c51 3 170 9 263 13 197 8 172 21 -41 22 -72 1 -172 4
-223 8 l-91 6 153 156 c151 154 212 228 219 266 10 58 -95 -18 -289 -209 -79
-76 -145 -138 -147 -135 -4 3 -15 214 -29 524 -2 43 -3 39 -9 -29z"/>
<path d="M24135 56603 c-6 -183 -21 -332 -33 -345 -9 -9 -73 41 -197 156 -116
107 -180 156 -207 156 -44 0 0 -72 129 -210 115 -123 173 -191 173 -201 0 -19
-241 -47 -440 -50 l-95 -2 65 -7 c36 -4 133 -8 216 -9 83 0 185 -4 228 -7 l76
-7 -138 -141 c-138 -141 -232 -255 -232 -282 0 -48 83 11 278 198 l157 149 6
-43 c4 -24 10 -124 14 -223 11 -245 22 -321 24 -154 0 69 4 194 8 277 l6 151
152 -147 c156 -153 270 -241 288 -223 18 18 -42 98 -202 267 l-160 169 67 6
c37 4 155 11 262 15 229 9 206 22 -45 25 -88 1 -189 4 -223 8 l-64 6 144 150
c184 192 238 261 223 285 -16 27 -111 -47 -297 -229 -76 -74 -140 -133 -142
-130 -2 2 -9 130 -16 284 -7 154 -14 281 -15 283 -2 2 -6 -77 -10 -175z"/>
<path d="M15100 54993 c-7 -27 -15 -147 -19 -272 l-6 -224 -160 154 c-203 196
-265 245 -265 210 0 -16 74 -103 203 -238 69 -73 131 -141 137 -153 9 -17 7
-22 -14 -30 -41 -15 -171 -29 -357 -37 -198 -9 -198 -9 86 -23 193 -9 278 -19
292 -34 9 -9 -44 -73 -187 -222 -131 -138 -183 -204 -160 -204 26 0 111 71
265 221 l162 159 5 -233 c6 -230 16 -305 45 -314 24 -8 35 75 40 310 l5 237
133 -128 c155 -151 250 -232 271 -232 28 0 -15 58 -136 185 -200 208 -206 218
-142 234 52 14 239 31 341 32 47 0 95 4 106 9 13 5 -29 9 -111 9 -144 1 -320
16 -360 31 l-25 10 22 33 c13 17 73 84 134 147 132 137 178 194 173 216 -5 24
-84 -41 -259 -214 l-147 -144 -5 239 c-4 237 -14 313 -41 313 -8 0 -19 -21
-26 -47z"/>
<path d="M26849 54983 c-6 -32 -15 -153 -18 -270 l-6 -212 -164 156 c-146 138
-238 213 -263 213 -4 0 -8 -9 -8 -19 0 -32 86 -138 231 -286 l139 -142 -116
-7 c-64 -3 -191 -10 -283 -14 l-166 -7 100 -6 c55 -4 168 -7 251 -8 83 0 166
-4 183 -7 l32 -7 -148 -151 c-151 -153 -223 -241 -223 -270 0 -49 92 16 283
203 l157 154 0 -164 c0 -304 31 -459 71 -356 8 20 14 111 17 255 l4 222 134
-129 c127 -124 224 -201 251 -201 19 0 16 30 -6 65 -10 17 -79 97 -155 180
-75 82 -136 155 -136 162 0 7 17 17 38 22 52 14 239 31 341 32 47 0 95 4 106
9 12 5 -35 9 -126 9 -80 1 -207 4 -283 8 l-137 6 144 146 c146 148 223 241
229 275 10 60 -79 -2 -258 -177 l-142 -138 -5 223 c-5 230 -12 281 -39 286
-12 2 -19 -11 -29 -55z"/>
<path d="M20708 50341 c-169 -99 -404 -303 -540 -469 -343 -418 -524 -949
-581 -1704 l-13 -168 258 0 258 0 0 125 0 125 308 0 c764 0 2462 -71 2675
-112 93 -17 91 -22 95 257 l3 235 -53 0 c-170 0 -2653 -74 -2902 -86 l-129 -6
6 188 c5 207 28 357 92 599 80 309 148 434 412 762 134 168 193 252 193 278 0
22 -8 20 -82 -24z m-318 -358 c0 -5 -23 -46 -50 -93 -152 -257 -227 -462 -280
-773 -24 -141 -51 -392 -53 -498 -2 -87 12 -113 67 -124 57 -11 87 -28 101
-56 34 -65 3 -118 -82 -138 -74 -18 -86 -36 -92 -136 -4 -46 -12 -90 -19 -97
-15 -15 -117 -27 -234 -27 -78 -1 -88 1 -88 17 0 67 34 419 50 522 62 385 205
790 360 1022 143 212 320 423 320 381z m2730 -1611 l0 -168 -152 17 c-270 30
-753 52 -1528 69 -851 19 -1097 32 -1151 61 -19 10 -35 69 -25 94 9 23 46 34
163 45 160 15 1493 41 2476 48 l217 2 0 -168z"/>
<path d="M20275 47870 l-1480 -5 -390 -171 c-610 -268 -951 -431 -989 -473
-17 -19 -16 -20 76 -49 124 -40 521 -154 843 -242 425 -116 736 -210 831 -250
l43 -19 -14 -41 c-8 -23 -73 -162 -145 -310 -71 -147 -130 -273 -130 -278 0
-6 17 -15 38 -19 49 -11 3956 -10 4005 0 48 10 52 -12 -63 302 -49 133 -91
257 -95 277 -6 34 -5 36 22 42 58 12 271 26 626 41 489 20 559 31 730 109 250
114 837 616 837 715 0 29 -260 48 -770 56 -195 3 -374 8 -396 11 -41 5 -42 6
-140 159 l-99 155 -930 -2 c-511 -2 -1596 -5 -2410 -8z m3311 -107 c84 -152
174 -257 233 -273 62 -16 269 -30 456 -30 192 -1 509 -15 563 -26 20 -4 32
-12 32 -23 0 -25 -158 -171 -304 -280 -231 -174 -387 -268 -501 -304 -174 -55
-503 -82 -1073 -89 l-234 -3 -60 153 -59 152 -1612 0 -1612 0 -52 -103 c-56
-114 -95 -167 -123 -167 -26 0 -1173 311 -1500 407 -85 25 -161 49 -168 53
-16 8 2 16 768 346 l585 252 2312 1 2311 1 38 -67z m-1802 -821 l809 -7 83
-230 c122 -334 196 -563 192 -593 -4 -35 -26 -40 -258 -53 -260 -14 -2885 -14
-3243 0 -283 12 -317 15 -317 36 0 22 37 100 227 486 l185 376 757 -5 c416 -2
1120 -7 1565 -10z"/>
<path d="M20993 31878 c-21 -26 -102 -247 -178 -483 -100 -313 -269 -820 -289
-867 -9 -21 -20 -38 -25 -38 -13 0 -68 164 -160 471 -82 271 -144 453 -167
484 -17 23 -44 12 -44 -18 0 -30 40 -173 140 -497 98 -319 163 -554 158 -576
-3 -18 -183 99 -662 431 -373 257 -586 390 -586 363 0 -28 177 -301 466 -718
166 -240 299 -448 292 -456 -8 -7 -180 29 -498 106 -445 107 -565 127 -565 90
0 -23 71 -45 565 -170 546 -139 545 -139 534 -150 -8 -7 -245 -83 -879 -280
-372 -116 -645 -217 -645 -239 0 -16 410 -153 1020 -340 162 -50 326 -101 365
-114 l69 -24 -44 -16 c-25 -9 -198 -64 -385 -121 -397 -123 -572 -181 -591
-197 -8 -6 -14 -18 -14 -27 0 -30 158 6 560 128 266 81 515 150 543 150 17 0
17 -3 -5 -42 -13 -23 -103 -159 -200 -302 -371 -547 -494 -733 -528 -798 -69
-133 -94 -147 800 453 118 79 239 157 268 172 l52 28 0 -23 c0 -45 -60 -314
-130 -580 -105 -400 -114 -453 -84 -465 22 -8 29 5 74 147 30 95 212 785 247
938 15 64 25 36 287 -818 152 -496 220 -690 241 -690 20 0 113 265 250 718
111 365 230 734 247 766 5 10 14 14 18 10 17 -17 72 -203 151 -508 98 -380
153 -552 180 -566 15 -9 21 -7 26 6 3 9 -39 202 -95 428 -109 443 -135 566
-130 622 l3 37 370 -260 c204 -143 429 -302 500 -352 178 -127 277 -183 289
-163 12 20 -139 259 -424 667 -233 335 -390 567 -390 577 0 5 15 7 33 3 56
-12 343 -93 597 -170 407 -123 526 -148 518 -108 -4 22 -34 33 -408 150 -538
167 -620 195 -615 203 7 11 369 131 705 234 268 82 598 192 673 225 26 11 47
25 47 30 0 26 -140 75 -760 266 -620 190 -752 233 -763 244 -11 11 34 25 458
131 458 116 655 175 655 198 0 5 -7 15 -14 22 -19 15 -103 -2 -405 -82 -293
-77 -510 -127 -590 -135 -56 -5 -64 -4 -58 9 14 39 154 255 322 498 266 385
416 623 401 637 -17 17 -237 -120 -636 -397 -265 -184 -462 -315 -553 -370
l-38 -22 7 38 c9 51 98 366 163 579 99 322 141 515 113 515 -30 0 -74 -122
-251 -695 -49 -159 -94 -301 -99 -315 l-10 -25 -10 25 c-13 35 -93 287 -206
655 -101 331 -242 755 -255 768 -4 4 -13 2 -18 -5z m-46 -1773 c-4 -563 -4
-568 -59 -631 -52 -59 -93 -73 -241 -85 -133 -10 -1417 -3 -1697 10 l-135 6
355 109 c195 60 559 171 808 246 248 75 454 139 456 141 2 2 47 148 101 324
53 176 164 543 248 815 l152 495 8 -455 c4 -250 6 -689 4 -975z m328 705 c247
-784 285 -904 293 -911 6 -5 792 -247 1369 -421 l242 -73 -137 -7 c-75 -4
-492 -8 -927 -10 -859 -3 -886 -2 -959 49 -60 42 -85 100 -96 223 -5 58 -9
497 -9 975 l1 870 38 -115 c21 -63 104 -324 185 -580z m-1478 -147 c452 -317
511 -360 566 -412 75 -70 80 -109 29 -204 -42 -78 -131 -137 -207 -137 -45 0
-93 43 -184 164 -91 122 -621 876 -615 876 2 0 187 -129 411 -287z m2738 200
c-32 -56 -94 -149 -264 -398 -253 -369 -345 -496 -379 -526 -31 -28 -41 -31
-82 -27 -94 9 -189 80 -231 172 -24 54 -24 97 2 130 45 58 937 696 972 696 5
0 -3 -21 -18 -47z m-1504 -1429 c38 -19 79 -71 79 -100 0 -31 -35 -79 -76
-105 -17 -10 -34 -19 -38 -19 -17 0 -86 76 -96 106 -20 61 1 119 50 137 17 6
44 0 81 -19z m-496 -154 c116 -5 226 -14 246 -20 55 -16 101 -51 126 -95 35
-65 43 -178 43 -640 0 -464 -11 -1377 -17 -1372 -2 2 -66 210 -142 463 -77
252 -188 616 -248 808 l-108 349 -230 73 c-126 40 -485 153 -796 251 l-566
178 506 5 c912 9 974 9 1186 0z m2590 -15 c-22 -7 -308 -97 -635 -200 -327
-103 -669 -211 -760 -239 l-165 -53 -28 -84 c-15 -46 -127 -399 -247 -784
-121 -385 -224 -709 -230 -720 -15 -31 -6 1835 9 1905 17 77 53 128 107 151
71 32 208 36 1129 37 715 0 853 -2 820 -13z m-2881 -506 c90 -33 175 -145 176
-228 0 -65 -44 -108 -296 -290 -352 -253 -694 -481 -694 -462 0 26 464 693
636 914 84 110 73 106 178 66z m1716 -109 c168 -221 610 -860 610 -882 0 -20
-165 91 -620 415 -387 276 -400 286 -400 321 0 106 179 281 280 273 31 -2 42
-13 130 -127z"/>
<path d="M19574 17329 c-72 -9 -154 -56 -259 -149 -49 -44 -110 -93 -135 -109
-96 -62 -96 -64 -46 -264 65 -258 85 -497 93 -1107 6 -469 -5 -810 -32 -1057
-16 -140 -27 -198 -74 -376 -34 -131 -38 -174 -17 -203 13 -17 27 -19 123 -18
93 0 119 4 183 29 158 59 283 155 300 230 14 59 12 415 -5 795 -37 846 -4
1505 87 1749 25 67 143 190 229 239 277 158 716 1 947 -340 56 -82 110 -205
122 -279 17 -101 8 -417 -14 -485 -44 -137 -152 -210 -332 -221 -180 -12 -309
69 -327 205 -6 53 -28 79 -77 93 -87 26 -206 -53 -236 -159 -24 -82 -16 -196
19 -254 57 -98 148 -139 322 -145 262 -10 500 80 693 262 234 220 352 492 355
820 2 159 -4 175 -114 338 -44 65 -79 120 -77 122 18 18 227 88 290 97 248 35
573 -99 737 -304 64 -80 143 -237 177 -353 20 -70 27 -120 31 -224 6 -154 -4
-217 -50 -304 -37 -71 -81 -110 -167 -151 -62 -30 -70 -31 -195 -31 -125 0
-132 1 -184 30 -62 34 -101 85 -101 133 0 46 -26 97 -56 111 -89 40 -216 -19
-258 -121 -46 -110 26 -323 131 -389 158 -100 527 -35 802 141 256 164 435
510 448 870 8 205 -21 297 -131 417 -147 161 -361 273 -637 335 -90 20 -131
23 -304 23 -251 0 -305 -13 -521 -121 l-152 -76 -138 71 c-199 102 -206 103
-547 109 -404 6 -417 3 -608 -139 -58 -44 -109 -79 -113 -79 -3 0 -6 44 -6 98
0 67 -4 104 -14 117 -16 22 -89 33 -162 24z m38 -230 c9 -116 12 -549 12
-1492 0 -1229 -1 -1328 -17 -1344 -9 -9 -19 -14 -22 -11 -20 20 -27 311 -32
1355 -5 1269 4 1700 38 1666 5 -5 15 -83 21 -174z"/>
</g>
</svg>
