<?xml version="1.0" standalone="no"?>
<!DOCTYPE svg PUBLIC "-//W3C//DTD SVG 20010904//EN"
 "http://www.w3.org/TR/2001/REC-SVG-20010904/DTD/svg10.dtd">
<svg version="1.0" xmlns="http://www.w3.org/2000/svg"
 width="4192.000000pt" height="6667.000000pt" viewBox="0 0 4192.000000 6667.000000"
 preserveAspectRatio="xMidYMid meet">

<g transform="translate(0.000000,6667.000000) scale(0.100000,-0.100000)"
fill="#000000" stroke="none">
<path d="M20853 64606 c-97 -36 -171 -84 -248 -162 -116 -116 -178 -259 -179
-409 0 -197 112 -347 307 -412 73 -24 97 -27 227 -27 125 -1 155 2 220 22 255
81 354 223 367 527 11 261 -57 402 -222 464 -49 18 -77 21 -233 20 -160 0
-183 -2 -239 -23z m240 -176 c127 -39 220 -129 257 -249 60 -193 -23 -393
-177 -426 -83 -17 -242 42 -336 126 -95 85 -167 222 -167 316 1 71 62 175 126
212 77 46 191 54 297 21z"/>
<path d="M23423 64119 c-120 -50 -123 -52 -116 -78 4 -14 7 -150 7 -301 1
-222 -2 -294 -17 -375 -43 -243 -97 -426 -184 -625 -79 -181 -81 -164 19 -158
103 7 159 30 211 87 66 73 79 117 123 401 38 252 32 235 85 234 24 -1 170 -20
324 -43 301 -44 445 -52 494 -27 28 15 91 80 91 94 0 5 -6 17 -14 27 -11 15
-30 19 -100 23 l-87 5 104 106 c109 112 137 161 137 240 0 54 -41 130 -97 183
-140 130 -456 216 -673 183 -59 -9 -98 7 -111 45 -16 43 -50 39 -196 -21z
m574 -203 l118 -44 41 -69 c108 -182 99 -275 -29 -320 -43 -15 -83 -18 -232
-17 -210 0 -276 14 -319 65 -23 27 -26 39 -26 113 0 100 20 171 63 227 48 63
104 89 193 89 61 0 91 -7 191 -44z"/>
<path d="M18055 64153 c-182 -27 -315 -85 -415 -180 -93 -87 -132 -164 -138
-271 -5 -104 20 -171 96 -253 70 -76 112 -97 220 -111 96 -12 360 -5 476 13
184 29 303 94 326 181 22 82 -1 87 -97 21 -221 -151 -394 -159 -580 -27 -143
102 -211 247 -168 359 20 55 64 90 129 105 66 15 138 0 250 -52 117 -54 189
-62 230 -26 41 35 47 109 14 158 -38 58 -105 84 -218 86 -52 1 -108 0 -125 -3z"/>
<path d="M17240 64044 c-33 -22 -200 -186 -200 -197 0 -4 37 -62 81 -128 119
-177 122 -185 117 -414 l-3 -190 29 -3 c43 -5 111 25 145 63 36 41 46 97 36
193 -12 118 -89 494 -130 640 -17 57 -32 64 -75 36z"/>
<path d="M19480 63980 c-24 -24 -27 -86 -5 -117 8 -12 29 -24 46 -28 83 -19
141 72 88 139 -27 34 -98 37 -129 6z"/>
<path d="M22371 63974 c-32 -27 -38 -52 -21 -85 13 -22 61 -49 90 -49 61 0
124 76 100 120 -26 48 -119 56 -169 14z"/>
<path d="M24941 63979 c-47 -16 -167 -96 -158 -105 1 -2 25 3 52 11 104 32
154 14 216 -78 76 -115 72 -148 -35 -276 -101 -121 -175 -181 -224 -181 -10 0
-38 15 -62 33 -37 27 -53 32 -98 32 -44 0 -57 -4 -73 -24 -10 -13 -19 -35 -19
-50 1 -74 83 -171 146 -171 55 0 141 63 343 252 l126 116 76 -156 c89 -185
165 -288 258 -350 89 -59 140 -73 257 -70 l99 3 -93 64 c-163 112 -231 208
-383 545 -128 282 -180 378 -218 403 -43 29 -132 30 -210 2z"/>
<path d="M16678 63856 c-45 -16 -118 -73 -118 -92 0 -7 26 -30 58 -50 78 -50
100 -71 129 -128 36 -71 29 -120 -31 -218 -49 -80 -95 -128 -125 -128 -32 0
-105 55 -231 175 -213 202 -329 295 -367 295 -25 0 -89 -35 -139 -76 -49 -40
-65 -42 -98 -10 -29 30 -44 27 -222 -45 -135 -55 -194 -97 -194 -135 0 -32 7
-45 75 -139 88 -123 106 -219 59 -313 -47 -94 -137 -142 -279 -150 -184 -9
-322 71 -350 205 -8 40 10 109 33 119 9 5 81 9 160 9 171 0 176 3 170 97 -7
92 -64 138 -171 138 -227 0 -445 -385 -351 -620 36 -89 140 -131 324 -131 169
0 272 25 414 100 96 51 114 52 118 9 5 -49 39 -48 114 0 140 91 147 192 33
493 -66 175 -67 199 -8 199 44 0 66 15 72 50 6 26 11 30 37 30 79 0 199 -92
453 -347 l178 -179 -29 -39 c-87 -121 -177 -264 -212 -337 -86 -180 -63 -253
130 -412 l77 -64 99 93 c55 51 97 95 94 97 -3 2 -53 35 -112 72 -109 69 -158
113 -158 146 0 81 97 231 378 583 159 199 226 302 253 388 23 74 24 109 3 178
-36 122 -147 179 -266 137z"/>
<path d="M26105 63624 c-66 -20 -129 -44 -140 -55 -18 -18 -20 -33 -21 -157
-1 -165 -26 -289 -110 -532 -71 -207 -134 -348 -241 -538 -48 -86 -89 -160
-91 -164 -7 -15 222 -9 276 7 43 13 55 22 71 53 28 56 93 263 152 482 98 369
178 567 266 661 79 85 144 87 262 8 74 -50 133 -115 174 -194 28 -52 32 -70
32 -140 0 -66 -4 -86 -22 -116 -52 -83 -157 -75 -213 16 -52 84 -196 120 -236
59 -20 -30 -4 -123 30 -175 93 -140 434 -105 612 63 78 74 96 113 104 226 7
107 16 122 61 105 63 -24 182 -99 229 -144 84 -81 125 -199 106 -303 -9 -48
-59 -104 -99 -111 -49 -10 -87 10 -152 80 -46 48 -70 66 -103 75 -88 23 -132
-9 -132 -93 0 -133 100 -195 298 -184 105 5 204 34 287 83 110 64 195 182 195
270 0 108 -192 292 -388 373 -90 37 -145 50 -261 61 -111 11 -171 31 -260 89
-76 49 -184 85 -314 106 -105 16 -165 36 -171 57 -3 7 -7 25 -10 41 -5 23 -11
27 -39 26 -17 0 -86 -16 -152 -35z"/>
<path d="M20937 63102 c-10 -11 -17 -36 -17 -60 0 -57 26 -82 84 -82 58 0 80
21 72 69 -11 71 -99 117 -139 73z"/>
<path d="M14091 63059 c-41 -11 -127 -44 -190 -74 -64 -29 -132 -56 -152 -60
-31 -6 -37 -4 -42 14 -9 36 -42 24 -94 -33 -48 -52 -123 -186 -123 -219 0 -9
8 -21 19 -26 48 -26 135 -268 153 -425 13 -117 25 -143 71 -151 65 -13 376 82
659 201 194 81 254 117 289 172 52 82 34 129 -45 119 -65 -9 -70 2 -61 123 10
151 8 215 -10 250 -22 42 -99 96 -166 114 -77 22 -216 20 -308 -5z m170 -199
c88 -44 149 -125 149 -196 0 -88 -74 -164 -242 -247 -223 -110 -268 -100 -323
76 -57 177 -41 289 46 340 99 58 283 71 370 27z"/>
<path d="M27995 62910 c-32 -6 -75 -15 -95 -21 -78 -26 -175 -115 -211 -193
-42 -92 -16 -170 92 -282 160 -164 379 -275 573 -290 47 -4 86 -11 86 -17 0
-6 -11 -25 -25 -43 -32 -42 -31 -51 4 -59 24 -5 341 11 347 18 1 1 25 70 54
152 68 193 111 280 149 300 17 8 52 15 80 15 58 0 96 12 104 34 10 26 -47 81
-125 119 -92 45 -175 67 -255 67 -84 0 -103 -18 -103 -97 0 -227 -98 -362
-263 -363 -175 0 -387 174 -437 359 -15 56 -6 102 27 141 35 43 78 62 134 62
63 0 105 -30 134 -96 30 -67 48 -81 106 -81 58 0 98 27 118 78 30 80 -16 157
-109 183 -67 18 -302 27 -385 14z"/>
<path d="M19925 62609 c-11 -17 4 -75 24 -93 11 -10 30 -16 43 -14 33 4 38 61
7 94 -23 25 -63 32 -74 13z"/>
<path d="M20635 62560 c-27 -11 -84 -47 -125 -81 l-75 -61 55 8 c30 5 118 9
195 9 130 0 150 -3 285 -39 178 -47 262 -52 332 -17 75 36 179 164 121 147
-10 -3 -51 -15 -91 -27 -93 -27 -138 -23 -309 32 -108 34 -145 42 -233 45 -88
4 -113 1 -155 -16z"/>
<path d="M12633 62409 c-88 -13 -237 -64 -312 -106 -35 -19 -90 -62 -121 -94
-32 -33 -61 -59 -64 -59 -3 0 -15 18 -26 40 -11 22 -24 40 -29 40 -17 0 -58
-57 -120 -167 -33 -61 -61 -113 -61 -118 0 -5 27 -36 60 -71 72 -75 115 -161
164 -328 63 -218 117 -240 194 -78 53 112 51 149 -23 332 -92 229 -83 285 58
355 126 62 248 66 342 10 23 -13 67 -52 98 -85 63 -68 70 -95 40 -157 -27 -58
-63 -73 -175 -73 -121 0 -138 -11 -138 -90 0 -72 21 -107 72 -121 231 -62 477
315 392 602 -39 132 -171 195 -351 168z"/>
<path d="M19925 62199 c-74 -70 -77 -90 -30 -210 50 -127 56 -206 24 -328 -20
-77 -21 -91 -9 -106 21 -25 85 -14 121 21 39 37 58 100 65 214 8 118 -10 332
-33 402 -16 48 -21 53 -50 56 -28 3 -41 -5 -88 -49z"/>
<path d="M20425 62233 c-56 -30 -143 -104 -155 -132 -10 -24 -7 -37 17 -92
l28 -64 0 -330 c0 -336 -7 -419 -42 -533 -15 -48 -15 -54 -1 -69 25 -25 78 -9
133 39 97 86 104 155 50 494 l-5 31 447 6 c506 6 556 12 605 66 15 17 28 36
28 41 0 6 -16 20 -35 31 -19 12 -35 23 -35 27 0 3 11 20 25 38 38 50 57 111
57 184 1 70 -14 110 -54 146 -74 68 -125 75 -568 83 -212 4 -393 11 -402 15
-10 5 -18 14 -18 22 0 19 -38 17 -75 -3z m283 -133 c50 -22 170 -138 196 -187
15 -30 15 -36 2 -62 -8 -15 -37 -43 -65 -60 -136 -88 -287 -94 -349 -16 -54
68 -3 287 76 330 37 20 89 18 140 -5z m487 -11 c154 -64 219 -203 139 -298
-40 -48 -120 -73 -257 -79 l-119 -5 45 89 c58 115 71 163 63 242 -4 35 -4 67
-1 72 11 18 55 11 130 -21z"/>
<path d="M21900 62191 c-141 -43 -275 -202 -273 -323 1 -95 78 -177 202 -216
44 -13 93 -17 226 -17 154 0 170 -2 167 -17 -1 -9 7 -22 19 -29 30 -16 120 5
157 36 39 33 52 80 62 233 10 148 20 176 69 185 17 4 38 18 47 32 24 37 7 71
-43 84 -43 12 -283 15 -283 4 0 -5 7 -46 15 -93 33 -187 13 -270 -75 -318 -38
-20 -55 -23 -106 -19 -107 8 -228 80 -270 159 -19 36 -18 108 2 137 9 13 32
29 50 37 39 16 63 10 125 -36 72 -51 129 -32 129 44 0 51 -23 90 -64 110 -35
17 -112 20 -156 7z"/>
<path d="M19473 62155 c-48 -20 -44 -54 12 -117 79 -88 72 -163 -25 -260 -92
-92 -84 -97 -317 183 -67 81 -130 149 -138 153 -41 15 -103 -2 -147 -42 -28
-23 -22 -39 33 -95 67 -67 191 -223 263 -330 58 -84 58 -85 42 -115 -9 -17
-54 -71 -100 -121 -122 -130 -156 -216 -122 -305 22 -58 101 -132 151 -142 71
-13 146 46 126 98 -5 14 -48 61 -95 104 l-86 79 143 145 c361 365 452 472 484
565 13 40 14 56 4 100 -13 58 -29 77 -84 100 -45 19 -102 19 -144 0z"/>
<path d="M29800 62149 c-60 -10 -90 -35 -90 -75 0 -59 -81 -199 -198 -344 -74
-91 -106 -152 -98 -185 12 -49 240 -187 607 -369 338 -167 427 -192 488 -135
39 36 25 69 -41 102 -32 15 -58 32 -58 37 0 5 46 31 103 59 56 28 119 64 140
81 94 79 119 194 63 297 -74 136 -322 330 -496 388 -110 37 -146 62 -142 103
2 27 -2 34 -24 42 -30 12 -177 11 -254 -1z m346 -255 c59 -25 148 -89 189
-136 21 -24 53 -74 71 -113 29 -59 34 -80 34 -143 0 -118 -58 -202 -140 -202
-72 0 -320 104 -467 196 -89 56 -91 67 -29 177 121 212 216 273 342 221z"/>
<path d="M22670 62125 c0 -3 65 -134 144 -293 l144 -287 -120 -80 c-144 -96
-210 -164 -234 -239 -24 -76 -9 -127 60 -201 65 -69 86 -74 154 -35 70 41 69
55 -15 154 -26 32 -33 48 -33 83 0 39 5 49 48 92 53 53 143 116 312 216 144
86 282 180 344 237 43 39 49 49 53 95 7 65 -18 140 -57 178 -26 25 -34 27 -72
21 -24 -4 -74 -11 -112 -16 -38 -6 -71 -12 -73 -14 -3 -2 16 -18 41 -36 25
-17 53 -44 61 -60 33 -65 6 -172 -57 -225 -33 -28 -120 -75 -138 -75 -6 0 -41
62 -76 138 -115 242 -125 261 -152 293 -14 18 -41 38 -59 45 -30 13 -163 20
-163 9z"/>
<path d="M18271 61984 c-30 -8 -60 -19 -66 -24 -20 -17 -109 -31 -250 -40
-145 -10 -214 -26 -250 -60 -23 -22 -35 -18 -35 11 0 10 -5 21 -10 24 -29 18
-170 -117 -170 -161 0 -13 18 -66 40 -117 73 -172 122 -437 138 -750 9 -179
18 -206 60 -193 33 11 110 100 122 143 11 36 9 55 -24 181 -39 152 -42 178
-25 215 26 56 99 79 449 137 258 43 453 88 504 118 41 24 48 73 14 109 -22 23
-23 32 -23 156 0 146 -12 196 -51 222 -65 42 -311 59 -423 29z m184 -108 c101
-47 164 -131 165 -219 0 -53 -13 -72 -61 -91 -80 -32 -323 -75 -333 -58 -3 5
6 24 20 43 38 52 46 98 38 227 -6 106 -5 116 12 129 25 19 71 10 159 -31z
m-480 -85 c82 -36 165 -130 165 -185 0 -49 -32 -91 -93 -120 -114 -56 -267
-75 -300 -38 -28 30 -40 122 -28 207 15 108 32 134 101 159 25 9 112 -4 155
-23z"/>
<path d="M11435 61861 c-151 -37 -278 -121 -372 -246 -77 -101 -98 -166 -98
-295 0 -99 2 -110 32 -170 40 -80 106 -158 150 -176 18 -8 61 -14 95 -14 240
0 545 133 713 311 67 71 77 94 90 199 8 62 10 63 -63 -31 -116 -149 -248 -238
-385 -261 -129 -21 -256 21 -353 118 -61 62 -114 147 -114 185 0 105 186 188
390 175 112 -8 153 3 168 42 15 38 24 119 17 141 -13 43 -143 53 -270 22z"/>
<path d="M24233 61865 c-77 -21 -125 -48 -178 -102 -53 -53 -95 -131 -95 -179
0 -65 93 -166 209 -224 24 -12 95 -35 158 -51 113 -29 166 -49 178 -69 9 -15
77 -12 126 5 87 31 113 76 144 250 23 125 37 152 89 166 71 18 91 32 94 65 2
18 -3 36 -12 43 -22 19 -143 33 -214 25 -91 -9 -101 -21 -108 -124 -3 -47 -10
-99 -15 -117 -25 -81 -110 -153 -182 -153 -51 0 -131 45 -186 106 -57 62 -75
108 -68 170 11 101 68 123 152 58 57 -43 89 -56 121 -48 50 13 69 76 39 133
-28 56 -139 76 -252 46z"/>
<path d="M16723 61730 c-34 -20 -78 -93 -70 -114 4 -9 19 -10 64 -3 51 9 65 8
98 -9 59 -29 80 -64 79 -132 -2 -66 -34 -159 -72 -204 -31 -36 -78 -58 -126
-58 -31 0 -66 -20 -66 -38 0 -35 73 -82 127 -82 61 0 88 39 154 223 22 62 44
116 48 120 12 12 44 -7 136 -80 151 -121 259 -156 345 -111 68 35 63 47 -37
95 -93 44 -206 125 -338 243 -95 84 -169 135 -226 155 -55 20 -78 19 -116 -5z"/>
<path d="M25613 61600 c-71 -36 -82 -60 -28 -60 52 0 96 -43 102 -101 7 -60
-20 -122 -83 -190 -75 -79 -123 -96 -185 -63 -84 43 -160 -54 -93 -117 55 -52
155 -20 301 96 46 36 86 65 91 65 5 0 36 -57 68 -127 105 -228 148 -273 260
-273 63 0 67 21 16 73 -55 56 -120 198 -172 372 -55 184 -93 275 -133 313 -48
46 -72 48 -144 12z"/>
<path d="M16215 61595 c-134 -35 -395 -121 -525 -172 -177 -70 -229 -109 -230
-170 0 -46 -10 -46 185 7 77 21 141 37 143 35 2 -2 -21 -36 -51 -77 -86 -115
-127 -214 -127 -307 0 -57 -16 -115 -36 -136 -27 -26 -92 -18 -174 21 -41 19
-149 84 -241 145 -188 123 -262 160 -331 167 -43 4 -50 2 -81 -29 -32 -32 -76
-133 -63 -146 3 -3 23 6 44 21 46 31 88 33 141 6 62 -31 86 -80 85 -170 0 -41
-6 -92 -13 -112 -16 -48 -63 -88 -105 -88 -47 0 -76 -24 -76 -65 0 -72 109
-115 158 -62 28 29 45 82 77 232 14 65 28 121 30 124 3 2 45 -22 94 -53 137
-86 148 -89 356 -90 l180 -1 48 -30 c27 -16 65 -40 85 -52 50 -30 129 -45 231
-44 222 2 455 120 527 267 62 127 32 310 -59 361 -54 30 -127 4 -127 -46 0
-37 34 -67 93 -82 158 -39 95 -233 -108 -328 -127 -60 -250 -65 -353 -15 -70
34 -171 129 -206 194 -39 72 -34 140 18 245 72 145 190 233 391 290 50 15 113
39 140 54 53 30 93 85 82 114 -9 25 -92 21 -202 -8z"/>
<path d="M31220 61513 c-14 -2 -49 -11 -78 -19 -61 -17 -59 -33 7 -53 75 -22
141 -133 141 -236 0 -36 -5 -48 -35 -73 -85 -76 -272 -165 -348 -166 -43 -1
-52 3 -72 29 -48 61 -64 74 -103 84 -30 9 -49 8 -78 -1 -76 -26 -75 -110 2
-189 82 -84 145 -75 465 61 63 28 121 50 127 50 23 0 35 -47 43 -167 10 -150
27 -224 78 -328 47 -95 118 -171 206 -219 33 -18 71 -48 84 -67 22 -32 23 -40
18 -145 -9 -199 31 -333 140 -469 97 -120 280 -246 457 -314 83 -32 100 -35
196 -36 99 0 109 2 172 33 48 23 85 52 132 103 116 125 130 191 59 270 -64 71
-127 88 -177 48 -36 -28 -34 -63 9 -143 54 -102 45 -155 -35 -196 -128 -66
-355 -12 -502 120 -71 64 -143 170 -176 263 -22 60 -26 90 -27 177 0 97 2 110
31 170 40 84 79 129 162 184 179 118 355 100 626 -63 116 -71 264 -185 551
-427 293 -246 361 -307 348 -311 -6 -2 -54 8 -108 22 -340 88 -659 -78 -715
-374 -14 -77 -13 -118 10 -205 72 -282 349 -543 653 -616 172 -42 320 -13 423
82 60 55 94 126 94 196 0 96 -40 147 -122 158 -63 8 -83 -10 -82 -77 0 -48 4
-56 37 -84 42 -37 47 -64 17 -112 -49 -81 -163 -125 -267 -105 -268 53 -540
382 -520 628 10 135 111 266 262 340 77 38 82 39 185 39 81 0 122 -6 180 -24
106 -33 249 -109 360 -192 155 -117 318 -184 383 -160 61 23 55 29 -453 466
-620 532 -1258 1057 -1493 1228 -156 114 -232 152 -289 143 -59 -10 -71 -21
-54 -55 16 -30 104 -116 229 -221 l89 -75 -224 -6 c-253 -6 -277 -12 -401 -93
-38 -25 -88 -52 -113 -62 l-45 -17 -35 34 c-95 92 -150 311 -174 689 -12 194
-26 318 -41 367 -13 41 -78 99 -120 108 -60 12 -64 12 -89 8z"/>
<path d="M10625 61361 c-43 -20 -77 -53 -119 -116 -41 -62 -37 -71 40 -78 129
-12 229 -98 227 -195 -1 -93 -64 -272 -99 -286 -7 -3 -132 48 -276 113 -364
163 -382 169 -444 130 -40 -25 -110 -101 -117 -129 -7 -26 17 -50 49 -50 14 0
69 -16 122 -36 112 -42 581 -249 595 -263 6 -6 -4 -53 -27 -128 -54 -179 -69
-249 -69 -348 -1 -73 4 -100 23 -143 44 -100 147 -162 269 -162 84 0 122 24
144 91 28 84 6 112 -113 139 -158 37 -199 107 -165 286 9 48 54 203 100 344
95 289 143 467 152 556 11 119 -47 232 -142 275 -51 24 -99 23 -150 0z"/>
<path d="M26338 61329 c-27 -15 -22 -49 33 -239 63 -216 74 -319 39 -363 -13
-16 -72 -53 -142 -87 -122 -60 -208 -118 -232 -155 -48 -73 -12 -202 71 -257
35 -23 131 -25 139 -3 3 8 -6 49 -20 92 -31 93 -32 118 -6 160 37 61 103 93
398 194 234 80 329 122 391 175 70 60 87 124 55 204 -23 57 -58 73 -157 72
-44 -1 -82 -3 -84 -6 -2 -2 7 -21 22 -41 20 -30 25 -50 25 -97 0 -33 -7 -72
-15 -88 -28 -55 -107 -100 -176 -100 -34 0 -42 5 -59 32 -11 18 -29 76 -41
128 -38 170 -68 279 -89 321 -30 57 -105 86 -152 58z"/>
<path d="M27350 60982 c-19 -16 -21 -22 -11 -40 6 -12 20 -22 30 -22 35 0 54
-35 48 -89 -10 -87 -71 -185 -151 -242 -48 -36 -72 -36 -116 -4 -70 52 -150
19 -150 -61 0 -50 29 -74 88 -74 58 0 97 18 232 104 57 36 109 65 114 63 11
-4 21 -35 50 -161 30 -127 96 -235 167 -272 37 -19 129 -19 129 0 0 8 -7 16
-15 20 -22 8 -77 100 -112 186 -37 90 -60 195 -67 311 -8 120 -37 209 -85 259
-33 35 -43 40 -83 40 -29 0 -54 -7 -68 -18z"/>
<path d="M14380 60873 c-42 -66 -73 -152 -65 -182 4 -14 20 -42 36 -62 41 -52
59 -100 59 -159 0 -118 -83 -180 -240 -180 -93 0 -161 22 -199 65 -35 41 -46
74 -36 113 12 50 32 62 103 62 112 0 171 50 142 120 -53 128 -265 33 -356
-158 -49 -103 -40 -255 18 -309 68 -64 216 -76 353 -29 151 51 265 132 265
187 0 15 5 31 12 35 37 23 169 -267 234 -515 33 -126 31 -140 -16 -197 -22
-26 -38 -49 -36 -51 2 -2 30 6 62 18 71 26 122 77 147 146 37 104 23 156 -133
483 -59 124 -130 281 -159 350 -103 246 -113 269 -128 289 -21 30 -30 26 -63
-26z"/>
<path d="M9487 60596 c-108 -45 -200 -107 -288 -196 -71 -71 -94 -103 -129
-174 -59 -125 -69 -180 -47 -264 73 -277 225 -365 483 -277 340 117 651 399
602 548 -22 65 -34 65 -64 1 -34 -73 -162 -208 -255 -270 -96 -63 -143 -77
-243 -72 -139 7 -250 72 -328 193 -56 85 -51 104 42 182 98 83 138 98 236 90
44 -4 94 -2 119 4 53 13 122 80 131 127 6 29 2 37 -43 82 -48 48 -53 50 -104
50 -33 0 -76 -10 -112 -24z"/>
<path d="M28111 60539 c-57 -11 -119 -48 -165 -100 -104 -114 -89 -222 48
-360 72 -72 123 -104 189 -119 61 -13 111 -39 208 -105 111 -76 173 -97 297
-103 56 -2 102 -6 102 -9 0 -12 -131 -229 -188 -313 -73 -107 -236 -306 -258
-314 -12 -5 -21 -66 -10 -66 30 0 202 44 221 56 34 22 106 119 170 229 73 125
330 614 360 686 44 103 33 115 -94 107 -89 -5 -106 -20 -116 -96 -12 -99 -63
-167 -161 -215 -41 -19 -47 -20 -69 -6 -35 21 -122 126 -151 181 -57 111 -13
248 79 248 40 0 97 -57 97 -98 0 -90 139 -68 156 25 20 108 -121 192 -276 164
-85 -16 -138 -40 -190 -87 -47 -42 -70 -87 -70 -133 0 -38 -23 -61 -61 -61
-64 0 -164 130 -176 229 -4 39 -1 57 16 88 22 39 76 83 101 83 7 0 43 -31 80
-70 74 -77 109 -89 146 -49 27 30 27 128 0 158 -36 40 -196 68 -285 50z"/>
<path d="M13409 60431 c-73 -74 8 -156 83 -84 35 33 37 75 6 97 -33 23 -56 20
-89 -13z"/>
<path d="M12900 60430 c-15 -29 -45 -41 -121 -51 -82 -10 -139 -37 -197 -93
-54 -51 -84 -107 -80 -149 4 -43 25 -38 103 20 67 51 153 93 191 93 30 0 92
31 116 57 27 30 49 91 42 118 -8 30 -39 33 -54 5z"/>
<path d="M29551 60291 c-13 -3 -29 -14 -35 -23 -16 -26 22 -72 64 -76 54 -6
103 57 68 86 -19 14 -69 21 -97 13z"/>
<path d="M12994 60140 c-90 -23 -127 -39 -210 -89 -38 -23 -87 -44 -109 -48
-52 -8 -97 -54 -124 -128 -36 -95 -30 -115 57 -210 163 -177 401 -662 402
-818 0 -32 -8 -47 -52 -93 -28 -30 -48 -57 -44 -61 10 -10 83 30 131 72 22 19
43 35 46 35 4 0 21 22 38 48 63 99 39 187 -140 508 -201 359 -247 464 -229
519 24 74 115 119 240 120 77 0 90 -3 139 -31 40 -22 62 -43 80 -77 l26 -46
-21 -28 c-22 -29 -47 -40 -144 -67 -67 -18 -100 -47 -100 -85 0 -89 142 -89
244 0 140 123 154 420 22 480 -53 24 -158 24 -252 -1z"/>
<path d="M13637 60033 c-64 -33 -63 -108 1 -142 45 -24 102 20 102 78 0 24
-34 67 -58 73 -10 3 -31 -1 -45 -9z"/>
<path d="M29239 59941 c-19 -15 -24 -32 -30 -100 -9 -106 -37 -163 -132 -269
-41 -45 -77 -91 -80 -102 -9 -34 18 -50 84 -50 54 0 62 3 100 37 23 21 58 62
79 93 31 45 191 316 230 390 10 19 8 20 -109 20 -101 0 -122 -3 -142 -19z"/>
<path d="M12141 59690 c-135 -49 -283 -176 -341 -294 -29 -58 -32 -73 -27
-125 6 -75 73 -221 112 -247 20 -13 52 -19 119 -22 83 -3 100 0 188 31 53 19
131 54 174 78 89 51 221 169 241 216 15 38 17 93 3 93 -6 0 -56 -43 -111 -95
-59 -55 -124 -106 -155 -121 -145 -71 -338 -20 -401 106 -32 63 -30 114 5 150
35 34 78 47 197 55 124 9 154 20 171 61 19 46 18 77 -7 108 -17 22 -28 26 -67
26 -26 -1 -71 -10 -101 -20z"/>
<path d="M29635 59664 c-11 -2 -44 -9 -73 -15 -97 -20 -146 -83 -146 -189 0
-52 6 -78 30 -130 41 -87 74 -124 163 -182 68 -44 99 -57 175 -73 27 -6 28 -8
23 -50 -8 -58 9 -68 109 -63 104 5 104 5 242 216 44 68 89 95 142 84 44 -10
67 -5 74 14 22 58 -149 195 -223 179 -40 -9 -76 -51 -101 -116 -41 -111 -114
-179 -192 -179 -69 0 -182 89 -228 180 -59 116 -18 240 82 240 34 0 84 -42 93
-77 10 -41 54 -83 86 -83 51 0 75 46 66 126 -9 84 -62 114 -207 120 -52 1
-104 1 -115 -2z"/>
<path d="M11282 59637 c-21 -25 -63 -168 -56 -190 3 -12 57 -71 118 -132 174
-171 275 -339 276 -456 1 -190 -280 -303 -421 -169 -59 56 -65 123 -13 157 14
9 54 20 87 25 48 6 67 14 85 34 28 32 28 76 -1 110 -32 37 -109 39 -161 3 -47
-31 -100 -108 -128 -184 -30 -81 -32 -232 -4 -288 38 -78 141 -110 263 -82 85
19 158 61 253 146 39 35 81 69 93 76 28 16 70 16 84 2 22 -22 61 16 79 77 25
87 16 162 -27 222 -348 491 -478 662 -506 662 -6 0 -15 -6 -21 -13z"/>
<path d="M8315 59521 c-85 -24 -168 -64 -240 -115 -70 -51 -109 -92 -159 -170
-48 -74 -73 -90 -134 -81 -35 5 -51 3 -59 -7 -12 -15 -36 -180 -37 -252 l-1
-50 60 -33 c76 -42 124 -96 230 -253 91 -137 133 -184 162 -178 10 2 29 25 43
53 20 40 25 65 25 125 -1 92 -24 143 -125 270 -84 106 -110 156 -110 213 0 49
33 106 86 151 186 154 524 109 524 -70 0 -79 -58 -129 -163 -141 -67 -7 -94
-24 -106 -68 -21 -77 34 -155 110 -155 55 0 97 20 147 71 96 97 155 285 135
426 -13 91 -61 193 -108 229 -71 54 -172 66 -280 35z"/>
<path d="M30386 59158 c-9 -12 -16 -28 -16 -35 0 -27 -54 -98 -165 -216 -63
-67 -115 -127 -115 -133 0 -16 34 -24 100 -24 109 0 154 25 237 132 49 65 122
118 160 118 13 0 41 -9 62 -20 75 -38 131 -129 139 -226 6 -79 -10 -124 -59
-168 -63 -58 -93 -46 -136 54 -30 67 -59 100 -88 100 -38 0 -59 -35 -63 -104
-4 -55 -1 -65 21 -92 60 -71 282 -100 398 -51 47 19 106 87 120 139 38 143
-58 298 -262 419 -54 33 -99 67 -106 82 -15 29 -74 47 -157 47 -45 0 -58 -4
-70 -22z"/>
<path d="M7336 58848 c-9 -52 -36 -275 -36 -299 0 -35 15 -45 80 -52 30 -4 84
-21 120 -38 88 -44 215 -170 260 -259 69 -138 103 -158 159 -95 91 104 36 211
-264 511 -244 245 -308 291 -319 232z"/>
<path d="M34322 58660 c-97 -21 -201 -89 -223 -148 -36 -95 37 -301 168 -476
80 -107 158 -177 248 -224 40 -21 71 -45 73 -54 2 -10 -6 -30 -17 -44 -12 -15
-21 -34 -21 -44 0 -43 133 -115 215 -115 73 0 130 34 258 154 164 153 189 164
273 115 49 -29 104 -35 128 -15 20 16 21 71 2 114 -18 44 -86 118 -157 173
-66 50 -162 104 -188 104 -11 0 -27 -21 -45 -57 -39 -79 -104 -169 -163 -225
-39 -36 -61 -48 -95 -53 -140 -21 -286 93 -358 280 -18 48 -23 81 -24 160 -1
89 2 105 24 144 35 61 69 84 125 84 81 0 132 -55 145 -156 14 -118 79 -182
156 -157 43 14 62 42 70 102 25 184 -170 333 -451 343 -55 2 -119 0 -143 -5z"/>
<path d="M7050 58443 c-39 -20 -90 -105 -112 -187 -16 -62 -7 -68 94 -59 174
14 247 -65 256 -277 4 -98 3 -107 -19 -134 -23 -29 -23 -29 -108 -23 -47 3
-169 23 -271 43 -130 26 -214 37 -282 38 -96 1 -98 1 -128 -29 -33 -33 -84
-163 -75 -188 5 -11 33 -14 143 -15 86 0 190 -8 277 -21 138 -20 395 -68 400
-73 1 -2 10 -107 19 -233 17 -231 33 -330 61 -386 35 -66 166 -115 287 -107
95 7 111 20 127 104 7 38 15 81 18 96 7 38 -15 46 -143 54 -123 7 -165 22
-193 68 -40 64 -45 136 -35 505 12 482 11 619 -5 664 -16 46 -94 127 -147 152
-56 27 -122 30 -164 8z"/>
<path d="M10341 58446 c-45 -25 -65 -90 -36 -119 11 -11 29 -14 73 -10 42 4
67 1 89 -10 58 -30 115 -116 128 -194 11 -71 -1 -102 -71 -169 -52 -50 -64
-68 -64 -92 0 -22 7 -35 21 -43 29 -15 116 -6 136 14 25 25 32 99 26 271 -5
136 -4 159 8 154 8 -3 59 -18 114 -33 115 -32 241 -38 318 -16 61 18 109 64
105 100 l-3 26 -110 -3 c-127 -4 -195 8 -378 67 -215 70 -306 85 -356 57z"/>
<path d="M31500 58362 c-28 -9 -62 -47 -90 -102 -15 -30 -48 -82 -73 -115
-108 -143 -394 -428 -526 -524 -76 -54 -151 -120 -151 -132 0 -10 258 -9 285
1 27 11 152 140 270 280 114 135 284 312 339 352 93 67 202 11 257 -132 48
-127 -11 -277 -105 -268 -28 3 -35 11 -68 78 -40 79 -77 120 -107 120 -74 0
-96 -137 -33 -211 34 -41 89 -65 180 -79 86 -14 170 4 242 50 99 64 138 130
119 206 -24 93 -154 263 -249 322 -75 47 -100 71 -93 90 8 20 -24 42 -62 42
-18 0 -52 6 -76 13 -24 8 -51 12 -59 9z"/>
<path d="M32692 57904 c-43 -30 -15 -114 38 -114 25 0 70 42 70 65 0 22 -45
65 -67 65 -10 0 -29 -7 -41 -16z"/>
<path d="M9700 57731 c-136 -43 -256 -133 -304 -228 -27 -54 -44 -66 -80 -57
-33 8 -61 -33 -75 -107 -14 -80 3 -132 56 -174 69 -54 134 -128 175 -199 73
-126 92 -136 130 -62 26 50 29 144 6 197 -9 19 -41 64 -72 98 -77 87 -93 149
-56 220 39 78 155 145 250 145 73 1 138 -34 164 -88 17 -35 17 -41 3 -70 -9
-19 -27 -37 -44 -43 -15 -6 -50 -19 -77 -28 -38 -14 -51 -25 -62 -51 -35 -84
64 -146 157 -99 101 53 158 267 112 428 -34 122 -137 165 -283 118z"/>
<path d="M32362 57738 c-8 -8 -10 -42 -6 -112 5 -89 3 -105 -14 -132 -25 -39
-107 -81 -189 -96 -81 -15 -108 -7 -133 42 -59 115 -180 53 -125 -65 9 -18 27
-37 41 -44 39 -18 141 -13 240 10 50 12 99 19 108 16 15 -6 16 -26 14 -189 -4
-220 -1 -227 104 -333 147 -146 247 -160 365 -51 73 67 110 86 168 86 51 0 89
-16 122 -52 67 -71 88 -226 42 -309 -29 -52 -76 -83 -114 -73 -35 9 -74 69
-84 132 -14 88 -53 107 -107 51 -26 -27 -29 -37 -29 -95 0 -65 0 -66 46 -109
133 -125 416 -91 505 61 26 44 26 48 15 101 -7 30 -33 95 -58 144 -52 104
-138 198 -221 242 l-53 27 123 107 c68 59 155 138 193 176 66 64 69 69 51 82
-27 21 -122 38 -178 33 -59 -6 -86 -29 -165 -141 -131 -187 -414 -414 -505
-405 -91 9 -109 179 -54 503 14 77 28 168 31 202 9 80 -9 168 -38 188 -26 18
-78 20 -95 3z"/>
<path d="M32864 57742 c-42 -28 -35 -95 13 -113 56 -21 108 57 67 102 -17 19
-59 25 -80 11z"/>
<path d="M35373 57715 c-12 -8 -34 -38 -49 -65 -43 -79 -128 -143 -351 -265
-79 -42 -143 -80 -143 -84 0 -13 234 -121 277 -127 65 -10 89 1 169 77 109
103 225 152 318 135 45 -9 127 -82 165 -149 67 -118 85 -284 41 -384 -42 -99
-132 -153 -198 -119 -43 22 -70 73 -87 160 -25 128 -58 171 -131 171 -37 0
-49 -6 -80 -36 -25 -25 -37 -48 -41 -76 -23 -171 305 -394 542 -368 78 8 174
32 203 51 61 40 91 147 72 263 -37 228 -159 425 -357 574 -35 26 -63 51 -63
56 0 5 11 12 25 15 67 17 -3 83 -149 141 -109 44 -136 49 -163 30z"/>
<path d="M6252 57459 c-193 -99 -331 -271 -392 -489 -58 -207 -23 -405 89
-517 86 -86 196 -96 333 -31 189 90 439 417 455 596 11 121 -42 254 -145 364
-120 127 -205 147 -340 77z m216 -228 c82 -43 141 -137 142 -227 0 -107 -77
-202 -224 -275 -131 -64 -260 -75 -360 -30 -53 23 -70 59 -64 140 10 145 169
338 325 396 56 20 137 18 181 -4z"/>
<path d="M8561 57231 c-27 -27 -28 -90 -2 -122 17 -21 21 -22 44 -10 38 20 55
67 36 99 -8 14 -24 31 -36 39 -19 13 -24 12 -42 -6z"/>
<path d="M8401 57074 c-19 -14 -22 -23 -18 -52 11 -65 57 -91 91 -53 19 21 26
85 10 100 -19 19 -59 22 -83 5z"/>
<path d="M8891 56959 c-86 -43 -189 -147 -234 -238 -82 -163 -72 -299 29 -411
77 -85 180 -103 289 -52 150 71 387 316 431 446 13 38 14 49 2 72 -7 15 -21
32 -31 38 -24 14 -47 -15 -47 -59 0 -79 -108 -217 -210 -271 -50 -26 -64 -29
-155 -29 -88 0 -106 3 -150 26 -55 28 -95 78 -95 119 0 41 52 113 106 147 50
31 91 47 155 57 114 19 110 186 -5 186 -12 0 -51 -14 -85 -31z"/>
<path d="M5615 56486 c-74 -24 -143 -65 -204 -122 -109 -100 -191 -228 -204
-318 -8 -49 -61 -130 -146 -221 -146 -154 -181 -215 -189 -317 -5 -74 -21 -88
-57 -48 -10 11 -26 20 -36 20 -25 0 -31 -43 -27 -188 4 -148 7 -152 127 -182
108 -27 183 -62 343 -157 190 -113 412 -283 588 -449 134 -126 196 -159 220
-115 13 26 13 182 -1 218 -24 63 -90 115 -359 278 -343 208 -522 336 -634 455
-73 78 -84 104 -67 162 36 120 242 224 405 204 55 -7 151 -50 189 -83 25 -23
21 -53 -14 -106 -34 -52 -101 -97 -143 -97 -51 0 -66 -16 -66 -68 0 -94 72
-156 152 -133 114 35 187 181 175 355 -9 149 -74 286 -163 349 -32 22 -59 31
-112 37 -38 4 -75 11 -81 14 -26 17 -8 52 62 121 170 167 356 197 472 78 83
-85 69 -138 -52 -201 -95 -49 -117 -72 -117 -118 0 -45 28 -73 92 -89 65 -17
115 -6 158 36 55 53 69 111 69 284 0 145 -1 152 -29 208 -33 69 -115 155 -171
182 -51 24 -128 29 -180 11z"/>
<path d="M33384 56366 c-178 -43 -253 -179 -194 -350 40 -117 227 -344 329
-400 56 -30 138 -44 167 -28 15 8 4 17 -72 55 -144 72 -249 208 -262 337 -8
82 63 205 140 246 98 51 201 -26 214 -159 10 -99 15 -118 46 -152 24 -28 37
-35 67 -35 129 0 95 201 -62 363 -68 70 -116 99 -204 122 -67 18 -100 18 -169
1z"/>
<path d="M7690 56227 c-41 -20 -64 -81 -65 -169 0 -42 3 -79 7 -83 4 -4 31 18
61 49 63 66 73 68 244 35 133 -25 178 -45 221 -94 41 -46 162 -288 162 -322 0
-15 -14 -37 -35 -57 -29 -28 -35 -40 -35 -75 0 -103 106 -120 147 -24 30 72 8
165 -82 351 l-64 132 44 0 c24 0 95 -7 157 -16 142 -20 279 -16 331 10 42 21
87 79 87 113 0 21 -3 22 -122 21 -145 0 -307 22 -665 93 -257 50 -348 58 -393
36z"/>
<path d="M36397 56129 c-203 -69 -269 -220 -201 -455 32 -113 97 -244 206
-414 166 -258 213 -300 340 -300 37 0 69 4 72 9 4 5 -34 39 -82 74 -110 81
-180 158 -231 256 -57 111 -74 185 -69 311 5 123 23 173 88 244 47 51 132 96
181 96 27 0 42 -10 82 -52 28 -29 66 -77 86 -107 l36 -54 1 -141 c0 -162 13
-207 78 -263 48 -43 114 -46 151 -9 117 117 -98 579 -347 745 -117 79 -269
102 -391 60z"/>
<path d="M34333 55792 c-18 -2 -33 -6 -33 -9 0 -4 24 -32 54 -63 38 -40 69
-87 104 -162 61 -125 91 -164 140 -178 41 -11 152 -14 152 -4 0 4 -31 39 -68
78 -69 73 -86 102 -96 167 -7 41 -71 121 -116 144 -37 19 -97 31 -137 27z"/>
<path d="M33949 55681 c-24 -16 -89 -71 -144 -122 -177 -166 -283 -239 -535
-369 -115 -59 -185 -101 -185 -110 0 -25 113 -75 171 -75 44 0 63 8 156 64 58
35 177 115 264 179 189 138 352 239 400 248 51 9 104 -29 140 -103 25 -50 29
-70 29 -143 0 -96 -15 -134 -65 -170 -17 -12 -48 -24 -70 -27 -32 -5 -43 -1
-65 21 -26 26 -27 31 -20 92 6 62 6 65 -23 94 -17 17 -41 30 -55 30 -49 0
-107 -69 -107 -128 0 -46 72 -127 145 -162 105 -51 278 -58 370 -14 97 46 89
279 -15 430 -23 33 -58 84 -80 114 -22 30 -42 67 -45 82 -8 33 -43 60 -108 82
-69 23 -107 20 -158 -13z"/>
<path d="M7441 55219 c-14 -39 -14 -139 -1 -173 11 -30 45 -49 120 -66 89 -21
149 -57 246 -151 99 -95 127 -108 144 -63 32 83 -1 167 -96 246 -102 84 -350
238 -385 238 -10 0 -22 -13 -28 -31z"/>
<path d="M7353 54825 c-62 -19 -138 -79 -205 -163 -60 -76 -108 -159 -108
-187 0 -31 -39 -91 -119 -185 -102 -119 -124 -163 -129 -257 l-4 -72 -126 86
c-146 101 -311 203 -328 203 -18 0 -22 -32 -12 -96 19 -125 60 -170 198 -220
104 -37 210 -91 316 -162 84 -57 128 -99 232 -221 24 -28 49 -51 56 -51 36 0
448 646 579 907 63 125 75 172 51 212 -21 36 -43 39 -68 12 -10 -11 -24 -17
-32 -14 -7 3 -39 41 -69 84 -81 116 -146 150 -232 124z m133 -224 c96 -44 96
-88 3 -269 -39 -75 -74 -141 -79 -146 -5 -5 -32 29 -62 75 -66 101 -126 159
-167 159 -39 0 -56 22 -40 52 36 68 94 119 157 138 50 15 145 11 188 -9z
m-255 -424 c55 -37 64 -67 45 -146 -28 -113 -119 -281 -153 -281 -22 0 -293
239 -293 259 0 20 142 143 190 165 74 35 162 36 211 3z"/>
<path d="M35235 54790 c-79 -30 -75 -135 6 -155 19 -5 33 0 53 17 61 52 13
165 -59 138z"/>
<path d="M34814 54591 c-12 -5 -45 -37 -75 -71 -67 -78 -163 -142 -306 -205
-62 -28 -113 -52 -113 -56 0 -12 159 -69 194 -69 40 0 111 32 196 90 109 74
293 180 312 180 31 0 33 29 3 60 -48 50 -166 89 -211 71z"/>
<path d="M37511 54587 c-6 -6 -11 -21 -11 -32 0 -53 -98 -107 -285 -156 -66
-17 -158 -43 -205 -58 -78 -24 -85 -29 -83 -51 3 -47 380 -826 454 -939 50
-76 87 -101 151 -101 88 0 93 10 48 100 -46 91 -39 108 31 71 48 -26 135 -51
177 -51 172 0 287 181 252 399 -27 174 -114 369 -205 464 -62 64 -68 90 -32
134 50 60 52 58 -129 161 -103 60 -147 75 -163 59z m150 -366 c60 -38 84 -66
112 -131 34 -77 50 -160 51 -265 1 -74 -3 -97 -21 -131 -37 -68 -133 -144
-184 -144 -45 0 -101 45 -169 135 -102 136 -230 364 -230 411 0 27 308 153
376 154 11 0 40 -13 65 -29z"/>
<path d="M4429 54521 c-135 -53 -301 -233 -359 -390 -12 -31 -24 -87 -27 -126
-8 -101 -13 -107 -75 -99 l-51 7 6 -64 c9 -100 36 -232 50 -246 7 -7 43 -17
80 -22 82 -12 175 -60 321 -165 166 -120 186 -132 197 -115 13 18 5 204 -11
244 -18 46 -77 102 -170 158 -95 58 -159 113 -191 164 -49 79 -13 212 78 293
88 77 233 130 302 110 80 -23 141 -91 141 -157 0 -63 -78 -139 -132 -129 -34
7 -55 -13 -64 -59 -11 -59 3 -100 46 -139 80 -72 169 -39 223 81 57 128 56
325 -2 448 -59 124 -184 226 -275 225 -23 -1 -62 -9 -87 -19z"/>
<path d="M35565 54061 c-22 -10 -79 -47 -125 -82 -160 -122 -295 -192 -490
-256 -195 -63 -207 -75 -130 -128 98 -68 134 -66 313 17 128 59 142 57 205
-26 58 -74 72 -109 72 -168 0 -67 -44 -146 -108 -195 -55 -42 -76 -41 -118 1
-34 34 -35 36 -32 111 3 71 1 78 -22 97 -17 14 -33 18 -54 14 -32 -7 -102 -68
-112 -98 -9 -29 24 -83 86 -143 122 -116 294 -154 428 -95 60 27 76 67 76 190
0 145 -37 254 -128 378 -25 34 -46 64 -46 67 0 2 80 45 178 95 99 50 189 101
201 114 l21 23 -20 25 c-21 27 -113 78 -139 78 -9 0 -34 -9 -56 -19z"/>
<path d="M6555 53663 c-36 -9 -52 -33 -59 -85 -4 -27 -14 -70 -22 -95 -9 -25
-13 -48 -9 -51 4 -4 33 8 65 26 135 74 225 18 250 -157 13 -90 3 -118 -42
-125 -18 -2 -100 -9 -183 -15 -175 -12 -254 -32 -300 -75 -40 -38 -57 -109
-31 -134 14 -14 26 -14 138 8 159 30 377 39 430 17 49 -20 62 -44 92 -165 52
-206 103 -262 237 -262 70 0 121 19 144 53 19 30 33 161 17 171 -6 3 -41 -6
-79 -21 -96 -39 -136 -37 -178 8 -43 48 -67 126 -110 359 -70 380 -115 495
-212 536 -31 14 -107 17 -148 7z"/>
<path d="M38716 53489 c-34 -41 -43 -76 -25 -108 31 -55 142 -66 175 -16 22
34 11 75 -33 119 -46 46 -81 48 -117 5z"/>
<path d="M3934 53446 c-62 -20 -159 -82 -218 -140 -145 -142 -242 -367 -253
-587 -12 -237 75 -380 232 -383 136 -2 223 135 137 217 -37 36 -73 47 -147 47
-82 0 -95 12 -95 88 0 136 157 355 308 429 51 25 67 28 162 28 101 0 108 -1
184 -38 271 -129 510 -430 524 -658 6 -99 -12 -134 -131 -257 l-90 -93 5 -64
c6 -66 32 -132 59 -148 29 -18 69 3 146 76 104 99 117 129 115 277 -3 216 -39
424 -102 587 -106 275 -331 487 -636 596 -92 33 -149 40 -200 23z"/>
<path d="M38025 53237 c-162 -166 -191 -182 -350 -192 -114 -6 -158 -19 -163
-47 -4 -23 59 -90 130 -138 93 -62 123 -57 385 64 182 83 363 156 389 156 12
0 29 7 38 15 23 23 4 63 -57 123 -49 48 -207 152 -231 152 -6 0 -70 -60 -141
-133z"/>
<path d="M36095 53158 c-47 -27 -48 -70 -2 -98 60 -37 117 -15 117 45 0 55
-62 83 -115 53z"/>
<path d="M35643 53024 c-90 -118 -141 -152 -309 -203 -111 -34 -142 -57 -125
-89 17 -31 74 -62 116 -62 47 0 227 71 395 155 161 81 166 85 151 114 -15 27
-156 121 -182 121 -10 0 -31 -16 -46 -36z"/>
<path d="M38301 52856 c-65 -67 -260 -130 -439 -142 -122 -9 -142 -16 -142
-50 0 -36 121 -157 186 -185 63 -28 112 -22 251 32 141 55 173 58 222 26 52
-34 105 -101 137 -171 23 -51 26 -67 22 -135 -5 -88 -27 -137 -85 -193 -56
-54 -115 -78 -195 -78 -82 0 -83 3 -73 140 11 155 -13 207 -107 230 -55 14
-89 2 -122 -43 -17 -24 -21 -43 -21 -110 0 -69 5 -90 27 -132 87 -166 342
-306 531 -292 56 4 77 10 113 36 25 17 53 31 64 31 51 0 86 -122 78 -265 -9
-131 -64 -232 -151 -274 -71 -34 -154 -25 -178 21 -7 13 -15 78 -19 146 -8
146 -17 162 -99 170 -134 13 -174 -87 -97 -243 86 -174 294 -315 465 -315 191
1 283 157 251 428 -15 127 -47 224 -108 330 -69 119 -89 185 -101 332 -12 144
-35 221 -92 310 -43 67 -79 134 -79 148 0 5 18 12 39 16 22 3 43 10 46 16 17
27 -77 128 -190 205 -75 51 -94 53 -134 11z"/>
<path d="M35873 52703 c-8 -2 -13 -22 -13 -44 0 -24 -5 -39 -12 -39 -7 -1 -62
-2 -123 -3 -135 -3 -167 -16 -198 -85 -18 -39 -22 -66 -22 -157 0 -137 24
-222 90 -314 50 -71 55 -96 24 -104 -19 -5 -19 -7 -5 -34 8 -15 41 -54 74 -86
l59 -58 264 112 c145 61 268 115 272 119 5 5 -39 120 -98 256 -165 385 -201
445 -267 443 -18 0 -39 -3 -45 -6z m-7 -241 c52 -38 79 -74 157 -215 l66 -118
-91 -44 c-104 -51 -140 -60 -204 -50 -58 8 -116 59 -140 121 -35 92 4 259 73
314 38 29 91 26 139 -8z"/>
<path d="M6095 52681 c-119 -54 -228 -285 -210 -445 20 -179 138 -306 286
-306 124 0 222 88 319 285 117 240 137 333 88 416 -15 25 -34 52 -43 59 -15
13 -16 7 -10 -66 8 -94 -4 -154 -47 -242 -72 -146 -161 -205 -308 -206 -93 0
-132 13 -169 60 -58 74 18 210 147 265 87 38 111 76 86 138 -24 60 -69 74
-139 42z"/>
<path d="M3441 52227 c-56 -28 -169 -137 -210 -202 -46 -72 -59 -131 -70 -304
l-9 -154 -44 -38 c-79 -67 -141 -232 -154 -412 -6 -86 -24 -117 -68 -117 -49
0 -51 -21 -11 -134 21 -59 47 -114 60 -126 17 -16 44 -24 100 -31 42 -5 113
-21 158 -36 98 -30 244 -102 272 -133 19 -21 19 -21 -10 -77 -19 -36 -46 -68
-80 -94 -67 -51 -242 -133 -435 -203 -217 -80 -329 -137 -380 -193 -41 -43
-42 -47 -38 -99 4 -44 13 -67 52 -124 27 -39 52 -71 57 -71 33 -6 34 -3 34 74
0 76 1 80 32 107 46 41 154 73 203 60 69 -19 274 -188 286 -237 4 -16 -4 -47
-26 -94 -36 -79 -35 -116 7 -149 45 -35 123 -20 172 33 20 22 23 33 18 72 -7
65 -56 133 -216 297 -74 76 -132 140 -130 143 2 2 48 20 102 39 275 100 397
220 443 437 21 99 16 221 -12 274 -27 52 -98 100 -188 126 -137 40 -187 62
-233 103 -40 37 -46 47 -50 93 -11 105 59 225 158 276 103 53 256 46 320 -14
46 -43 36 -78 -40 -149 -66 -62 -81 -86 -81 -129 0 -64 97 -132 165 -115 33 8
81 64 95 111 47 161 -3 363 -120 487 -58 62 -121 93 -206 102 -33 4 -67 11
-77 16 -32 16 -39 55 -21 116 13 46 28 68 87 127 84 84 142 110 247 109 74 0
114 -17 154 -64 39 -47 34 -72 -25 -122 -62 -53 -99 -113 -99 -161 0 -49 8
-65 41 -82 36 -19 66 -19 120 0 54 19 86 49 110 100 53 114 -18 330 -152 467
-110 112 -212 144 -308 95z"/>
<path d="M5879 51907 c-52 -19 -91 -50 -143 -110 -93 -109 -141 -211 -154
-329 l-7 -63 -39 2 c-44 3 -43 12 -12 -132 9 -38 16 -82 16 -97 0 -36 13 -42
97 -43 71 0 77 -2 226 -79 85 -43 159 -76 166 -72 6 4 11 33 11 69 0 131 -38
189 -129 200 -68 8 -140 54 -180 114 -44 66 -47 93 -18 157 58 127 176 204
273 177 88 -24 113 -104 52 -164 -74 -72 -87 -124 -44 -174 19 -21 33 -28 63
-28 52 0 86 24 113 80 20 41 22 58 18 143 -6 117 -38 206 -100 277 -64 73
-138 98 -209 72z"/>
<path d="M36774 51493 c5 -42 2 -55 -25 -103 -40 -70 -173 -200 -236 -231 -45
-22 -59 -24 -214 -24 -204 0 -208 2 -256 103 -41 85 -75 111 -112 86 -58 -41
-64 -123 -10 -168 56 -48 146 -67 332 -73 92 -3 167 -9 167 -12 0 -4 -34 -40
-76 -81 -87 -87 -181 -206 -214 -274 -41 -86 -48 -166 -13 -166 41 0 218 161
457 415 280 299 368 431 334 502 -15 31 -81 73 -117 73 -22 0 -23 -2 -17 -47z"/>
<path d="M38647 50949 c-86 -20 -120 -53 -153 -149 -16 -46 -19 -84 -19 -235
1 -201 7 -237 76 -409 47 -116 48 -149 4 -156 -16 -3 -31 -12 -33 -21 -4 -22
63 -147 101 -188 18 -18 46 -40 64 -47 44 -19 134 -17 213 5 341 94 350 95
350 22 0 -52 18 -90 45 -97 12 -3 41 -4 66 -2 41 3 44 5 48 33 8 76 -79 391
-124 443 l-22 25 -142 -77 c-157 -87 -194 -96 -270 -71 -192 64 -271 338 -159
558 42 85 152 187 201 187 24 0 105 -76 128 -122 22 -42 25 -107 7 -129 -7 -9
-25 -23 -40 -32 -36 -22 -35 -42 2 -100 33 -53 81 -87 122 -87 60 0 129 100
128 184 -2 116 -168 364 -283 423 -89 45 -221 63 -310 42z"/>
<path d="M5384 50566 c-71 -31 -201 -290 -220 -439 -6 -40 -15 -59 -41 -86
-29 -30 -34 -41 -29 -66 16 -81 122 -185 188 -185 47 0 146 -29 227 -66 163
-75 196 -42 275 274 93 370 98 470 22 497 -25 8 -30 6 -48 -18 -11 -15 -28
-27 -39 -27 -11 0 -46 24 -78 54 -35 32 -75 59 -98 65 -52 15 -121 13 -159 -3z
m218 -217 c42 -22 58 -59 58 -134 0 -86 -25 -231 -46 -262 -19 -30 -87 -31
-173 -4 -148 46 -195 138 -134 261 38 76 100 136 154 148 46 11 112 6 141 -9z"/>
<path d="M37056 50518 c-32 -45 -6 -98 48 -98 39 0 66 26 66 62 0 55 -83 81
-114 36z"/>
<path d="M36615 50496 c-16 -7 -62 -34 -101 -59 -105 -68 -160 -87 -254 -87
-118 0 -152 -23 -123 -82 31 -64 96 -71 293 -33 207 41 410 107 410 134 0 5
-23 30 -52 56 -81 73 -126 91 -173 71z"/>
<path d="M36649 50100 c-37 -28 -118 -46 -239 -55 -58 -4 -115 -11 -127 -16
-82 -31 77 -193 169 -174 18 4 70 18 115 32 47 14 93 23 107 19 30 -7 82 -60
107 -108 25 -50 26 -158 0 -213 -51 -113 -169 -155 -243 -88 -22 19 -24 79 -6
165 11 52 10 60 -5 75 -16 16 -21 16 -59 3 -59 -21 -83 -58 -83 -129 1 -77 39
-155 110 -219 43 -39 70 -55 139 -77 79 -26 90 -27 128 -15 59 17 112 73 133
140 22 72 31 258 16 331 -7 33 -24 73 -41 95 -16 22 -30 44 -30 50 0 6 14 23
30 38 40 35 32 49 -68 114 -85 56 -113 62 -153 32z"/>
<path d="M4999 49538 c22 -56 46 -99 61 -110 34 -24 114 -38 229 -38 192 0
353 -35 647 -140 206 -74 254 -84 254 -51 0 35 -40 148 -57 163 -51 45 -128
66 -613 167 -350 73 -500 101 -537 101 -21 0 -21 -2 16 -92z"/>
<path d="M39337 49480 c-35 -28 -41 -53 -21 -95 18 -39 54 -69 96 -79 39 -9
78 27 85 81 5 39 2 46 -30 78 -41 41 -89 47 -130 15z"/>
<path d="M38714 49402 c-55 -36 -36 -145 31 -176 46 -22 81 -8 101 41 31 73
-8 143 -80 143 -23 0 -46 -4 -52 -8z"/>
<path d="M2477 49275 c-23 -23 -23 -107 0 -130 28 -28 107 -15 146 23 27 27
29 34 19 56 -24 53 -130 86 -165 51z"/>
<path d="M3128 49193 c-48 -56 -52 -121 -9 -164 29 -28 72 -38 97 -21 50 33
41 175 -11 196 -30 11 -62 6 -77 -11z"/>
<path d="M36980 49150 c-39 -39 -11 -110 44 -110 25 0 66 41 66 65 0 7 -9 24
-21 39 -25 31 -61 34 -89 6z"/>
<path d="M4906 49144 c-24 -24 -37 -51 -30 -67 14 -37 107 -49 144 -19 22 18
22 19 6 50 -26 51 -87 70 -120 36z"/>
<path d="M36525 49065 c-30 -29 -32 -58 -5 -85 40 -40 110 -13 110 43 0 22
-43 67 -65 67 -9 0 -27 -11 -40 -25z"/>
<path d="M5389 49063 c-21 -24 -17 -112 6 -129 14 -10 23 -11 39 -2 49 26 60
78 25 122 -23 30 -50 34 -70 9z"/>
</g>
</svg>
