<?xml version="1.0" standalone="no"?>
<!DOCTYPE svg PUBLIC "-//W3C//DTD SVG 20010904//EN"
 "http://www.w3.org/TR/2001/REC-SVG-20010904/DTD/svg10.dtd">
<svg version="1.0" xmlns="http://www.w3.org/2000/svg"
 width="4192.000000pt" height="6667.000000pt" viewBox="0 0 4192.000000 6667.000000"
 preserveAspectRatio="xMidYMid meet">

<g transform="translate(0.000000,6667.000000) scale(0.100000,-0.100000)"
fill="#000000" stroke="none">
<path d="M20938 31753 c-25 -65 -80 -226 -123 -358 -101 -315 -269 -820 -289
-867 -9 -21 -20 -38 -25 -38 -13 0 -68 164 -160 471 -82 271 -144 453 -167
484 -17 23 -44 12 -44 -18 0 -30 40 -173 140 -497 98 -319 163 -554 158 -576
-3 -18 -183 99 -662 431 -373 257 -586 390 -586 363 0 -28 177 -301 466 -718
166 -240 299 -448 292 -456 -8 -7 -180 29 -498 106 -445 107 -565 127 -565 90
0 -23 71 -45 565 -170 546 -139 545 -139 534 -150 -8 -7 -245 -83 -879 -280
-372 -116 -645 -217 -645 -239 0 -16 410 -153 1020 -340 162 -50 326 -101 365
-114 l69 -24 -44 -16 c-25 -9 -198 -64 -385 -121 -397 -123 -572 -181 -591
-197 -8 -6 -14 -18 -14 -27 0 -30 158 6 560 128 266 81 515 150 543 150 17 0
17 -3 -5 -42 -13 -23 -103 -159 -200 -302 -371 -547 -494 -733 -528 -798 -69
-133 -94 -147 800 453 118 79 239 157 268 172 l52 28 0 -23 c0 -45 -60 -314
-130 -580 -105 -400 -114 -453 -84 -465 22 -8 29 5 74 147 30 95 212 785 247
938 15 64 25 36 287 -818 152 -496 220 -690 241 -690 20 0 113 265 250 718
111 365 230 734 247 766 5 10 14 14 18 10 17 -17 72 -203 151 -508 98 -380
153 -552 180 -566 15 -9 21 -7 26 6 3 9 -39 202 -95 428 -109 443 -135 566
-130 622 l3 37 370 -260 c204 -143 429 -302 500 -352 178 -127 277 -183 289
-163 12 20 -139 259 -424 667 -233 335 -390 567 -390 577 0 5 15 7 33 3 56
-12 343 -93 597 -170 407 -123 526 -148 518 -108 -4 22 -34 33 -408 150 -538
167 -620 195 -615 203 7 11 369 131 705 234 268 82 598 192 673 225 26 11 47
25 47 30 0 26 -140 75 -760 266 -620 190 -752 233 -763 244 -11 11 34 25 458
131 458 116 655 175 655 198 0 5 -7 15 -14 22 -19 15 -103 -2 -405 -82 -293
-77 -510 -127 -590 -135 -56 -5 -64 -4 -58 9 14 39 154 255 322 498 266 385
416 623 401 637 -17 17 -237 -120 -636 -397 -265 -184 -462 -315 -553 -370
l-38 -22 7 38 c9 51 98 366 163 579 99 322 141 515 113 515 -30 0 -74 -122
-251 -695 -49 -159 -94 -301 -99 -315 l-10 -25 -10 25 c-13 34 -92 285 -206
655 -79 257 -213 667 -241 738 -4 9 -15 17 -24 17 -12 0 -29 -32 -63 -117z m9
-1648 c-4 -563 -4 -568 -59 -631 -52 -59 -93 -73 -241 -85 -133 -10 -1417 -3
-1697 10 l-135 6 355 109 c195 60 559 171 808 246 248 75 454 139 456 141 2 2
47 148 101 324 53 176 164 543 248 815 l152 495 8 -455 c4 -250 6 -689 4 -975z
m328 705 c247 -784 285 -904 293 -911 6 -5 792 -247 1369 -421 l242 -73 -137
-7 c-75 -4 -492 -8 -927 -10 -859 -3 -886 -2 -959 49 -60 42 -85 100 -96 223
-5 58 -9 497 -9 975 l1 870 38 -115 c21 -63 104 -324 185 -580z m-1478 -147
c452 -317 511 -360 566 -412 75 -70 80 -109 29 -204 -42 -78 -131 -137 -207
-137 -45 0 -93 43 -184 164 -91 122 -621 876 -615 876 2 0 187 -129 411 -287z
m2738 200 c-32 -56 -94 -149 -264 -398 -253 -369 -345 -496 -379 -526 -31 -28
-41 -31 -82 -27 -94 9 -189 80 -231 172 -24 54 -24 97 2 130 45 58 937 696
972 696 5 0 -3 -21 -18 -47z m-1504 -1429 c38 -19 79 -71 79 -100 0 -31 -35
-79 -76 -105 -17 -10 -34 -19 -38 -19 -17 0 -86 76 -96 106 -20 61 1 119 50
137 17 6 44 0 81 -19z m-496 -154 c116 -5 226 -14 246 -20 55 -16 101 -51 126
-95 35 -65 43 -178 43 -640 0 -464 -11 -1377 -17 -1372 -2 2 -66 210 -142 463
-77 252 -188 616 -248 808 l-108 349 -230 73 c-126 40 -485 153 -796 251
l-566 178 506 5 c912 9 974 9 1186 0z m2590 -15 c-22 -7 -308 -97 -635 -200
-327 -103 -669 -211 -760 -239 l-165 -53 -28 -84 c-15 -46 -127 -399 -247
-784 -121 -385 -224 -709 -230 -720 -15 -31 -6 1835 9 1905 17 77 53 128 107
151 71 32 208 36 1129 37 715 0 853 -2 820 -13z m-2881 -506 c90 -33 175 -145
176 -228 0 -65 -44 -108 -296 -290 -352 -253 -694 -481 -694 -462 0 26 464
693 636 914 84 110 73 106 178 66z m1716 -109 c168 -221 610 -860 610 -882 0
-20 -165 91 -620 415 -387 276 -400 286 -400 321 0 106 179 281 280 273 31 -2
42 -13 130 -127z"/>
</g>
</svg>
