<?xml version="1.0" standalone="no"?>
<!DOCTYPE svg PUBLIC "-//W3C//DTD SVG 20010904//EN"
 "http://www.w3.org/TR/2001/REC-SVG-20010904/DTD/svg10.dtd">
<svg version="1.0" xmlns="http://www.w3.org/2000/svg"
 width="4192.000000pt" height="6667.000000pt" viewBox="0 0 4192.000000 6667.000000"
 preserveAspectRatio="xMidYMid meet">

<g transform="translate(0.000000,6667.000000) scale(0.100000,-0.100000)"
fill="#000000" stroke="none">
<path d="M9475 45854 c-723 -130 -1364 -637 -1723 -1366 -174 -352 -254 -614
-283 -931 -15 -169 -6 -651 16 -807 48 -350 145 -684 307 -1065 33 -77 140
-304 239 -506 98 -201 179 -373 179 -382 0 -9 -32 -155 -71 -324 -115 -502
-152 -708 -183 -1023 -65 -645 -37 -1709 59 -2265 44 -251 124 -536 220 -780
19 -49 33 -91 30 -93 -8 -8 -49 24 -155 123 -278 261 -655 543 -1080 810 -69
43 -144 91 -168 108 -24 16 -98 56 -165 90 -67 33 -210 107 -317 165 -226 122
-1069 542 -1505 751 -426 205 -1192 588 -1450 726 -714 383 -1135 660 -1555
1023 -58 50 -110 92 -116 92 -24 0 -396 379 -566 576 -305 352 -561 788 -629
1069 -41 172 -50 654 -14 823 41 199 232 544 451 817 111 137 339 372 463 476
100 84 253 192 286 203 11 3 37 22 57 40 35 31 38 39 38 85 0 49 -1 51 -29 51
-39 0 -399 -216 -554 -333 -486 -366 -806 -874 -918 -1457 -19 -101 -20 -137
-17 -512 4 -398 4 -404 32 -528 109 -491 329 -874 762 -1330 183 -193 604
-605 634 -620 14 -7 165 -105 335 -218 688 -454 1244 -779 2275 -1327 589
-313 953 -529 1425 -845 521 -349 857 -619 1055 -845 19 -22 53 -52 75 -67 22
-15 108 -96 190 -180 578 -588 1068 -1396 1155 -1903 24 -142 37 -332 51 -735
14 -419 15 -1197 3 -1228 -9 -22 -20 -12 -151 145 -212 253 -357 439 -387 492
-32 59 -85 264 -120 466 -49 277 -97 519 -148 750 -39 179 -51 251 -52 325 -1
92 1 99 36 170 21 41 74 120 119 175 78 96 133 190 123 207 -19 31 -91 -25
-198 -152 -80 -95 -179 -237 -214 -307 -31 -59 -67 -191 -88 -318 -26 -154
-27 -501 -1 -595 64 -236 301 -583 853 -1247 l243 -292 12 -2253 c6 -1239 9
-2282 7 -2318 l-3 -65 -90 119 c-263 348 -425 520 -720 766 -82 69 -168 143
-190 165 -22 22 -71 57 -110 77 -38 21 -126 78 -194 127 -484 348 -1375 823
-2716 1448 -824 384 -1545 764 -2060 1086 -153 95 -547 366 -629 431 -73 59
-458 441 -531 528 -251 297 -333 534 -305 881 34 413 185 863 418 1241 117
190 298 414 410 507 66 54 67 56 70 108 l3 54 -33 -6 c-34 -7 -63 -35 -326
-317 -450 -484 -711 -1006 -808 -1617 -22 -136 -30 -463 -15 -604 33 -311 127
-616 260 -841 88 -150 190 -268 490 -571 260 -262 301 -299 341 -311 25 -8
106 -47 180 -88 190 -105 741 -401 1160 -623 1828 -968 2830 -1583 3540 -2174
168 -141 311 -275 532 -498 174 -176 201 -207 232 -273 20 -41 36 -80 36 -86
0 -6 13 -28 29 -48 16 -20 32 -50 36 -65 3 -16 28 -55 56 -87 27 -32 55 -72
63 -89 8 -16 23 -41 33 -55 88 -114 358 -649 498 -985 383 -921 540 -1896 562
-3485 16 -1192 -85 -2410 -278 -3360 -93 -459 -265 -1030 -309 -1030 -6 0 -10
-7 -10 -15 0 -8 -4 -15 -9 -15 -4 0 -17 -22 -29 -49 -17 -41 -19 -63 -15 -135
6 -86 6 -86 33 -86 15 0 32 6 37 13 13 16 131 358 187 545 217 714 355 1559
416 2547 56 919 50 2077 -16 2875 -101 1238 -370 2140 -919 3095 -406 706
-683 1026 -1300 1502 -768 592 -1663 1127 -3569 2133 -638 337 -1000 536
-1131 623 -236 157 -574 491 -747 737 -67 95 -163 285 -202 401 -75 221 -106
408 -113 680 -8 314 25 563 112 824 41 126 124 320 132 311 2 -2 -12 -84 -31
-182 -80 -406 -101 -620 -77 -797 36 -272 196 -542 501 -847 205 -207 436
-387 843 -658 622 -415 1135 -689 2355 -1259 1170 -545 1732 -843 2357 -1246
489 -315 909 -666 1212 -1012 157 -179 224 -278 320 -467 l82 -163 0 775 c1
1240 -18 4569 -29 5240 -13 798 -25 1059 -51 1170 -164 704 -814 1617 -1683
2363 -617 530 -1149 874 -2311 1497 -1514 811 -2267 1286 -2833 1784 -143 126
-424 412 -511 521 -261 325 -515 846 -566 1157 -36 223 -44 693 -14 903 20
150 29 126 23 -65 -3 -111 -1 -223 6 -280 40 -347 176 -690 412 -1043 419
-626 1227 -1327 2103 -1825 335 -190 713 -384 2095 -1077 784 -393 1512 -764
1619 -825 595 -341 1065 -679 1404 -1010 150 -145 232 -240 347 -400 86 -120
143 -189 168 -204 13 -7 14 -3 9 24 -10 46 -68 190 -149 364 -192 413 -341
875 -383 1186 -33 247 -43 1856 -14 2260 12 170 30 285 76 475 156 656 348
1173 598 1611 84 146 251 394 352 519 110 139 358 392 486 498 352 292 727
497 1192 652 597 199 1197 267 1895 214 290 -22 601 -87 871 -182 115 -40 227
-93 217 -103 -2 -2 -47 5 -99 16 -248 50 -518 73 -844 73 -375 0 -658 -36
-1050 -133 -1258 -310 -2232 -1076 -2680 -2105 -176 -404 -292 -887 -335
-1390 -13 -157 -13 -560 1 -722 31 -378 113 -750 233 -1058 129 -328 759
-1555 829 -1613 19 -16 40 17 163 250 204 391 462 724 825 1065 347 327 532
461 904 654 845 437 1619 605 2710 586 615 -10 1075 -95 1565 -288 180 -70
700 -347 672 -357 -6 -2 -59 16 -119 38 -455 175 -781 235 -1318 247 -363 8
-659 -13 -1025 -72 -845 -137 -1563 -446 -2182 -940 -137 -109 -387 -352 -511
-494 -377 -437 -670 -978 -882 -1631 -140 -433 -282 -1100 -314 -1480 -48
-559 -48 -3072 -1 -4215 28 -671 128 -1891 196 -2390 26 -197 34 -234 49 -236
6 0 31 82 57 183 25 101 63 224 83 273 160 394 464 782 1260 1605 814 842
1097 1181 1335 1598 35 63 66 109 68 102 8 -24 -136 -365 -248 -585 -252 -497
-544 -967 -971 -1565 -1076 -1505 -1376 -2127 -1604 -3320 -69 -358 -81 -553
-96 -1571 -16 -1037 -17 -4070 -1 -4689 34 -1386 82 -2224 167 -2945 128
-1076 342 -1714 659 -1963 179 -141 330 -198 766 -287 253 -51 288 -70 461
-243 196 -197 331 -384 515 -714 430 -771 648 -1002 1219 -1293 509 -259 1086
-467 1715 -619 406 -98 901 -185 1255 -220 391 -39 589 -41 3755 -41 3574 0
3622 1 4145 75 976 140 1890 402 2580 740 366 179 662 384 822 569 88 103 233
322 425 646 334 561 403 669 521 806 105 123 238 211 389 257 37 12 143 37
236 57 326 68 480 122 624 218 219 146 355 369 477 782 138 466 254 1204 326
2070 39 476 70 1525 106 3640 17 963 18 3022 1 3335 -46 891 -111 1406 -242
1930 -132 525 -318 973 -630 1520 -148 258 -329 528 -730 1090 -447 624 -639
917 -890 1355 -122 213 -279 514 -350 675 -54 120 -128 322 -112 305 5 -5 69
-100 142 -209 315 -471 487 -674 1281 -1512 532 -561 799 -864 956 -1084 122
-171 245 -394 308 -560 31 -80 42 -126 81 -329 18 -99 32 -132 45 -109 40 71
199 1635 228 2243 33 661 51 1737 51 2960 0 1096 -8 1388 -46 1705 -96 816
-294 1539 -583 2135 -153 315 -327 594 -527 845 -138 173 -441 476 -614 614
-589 469 -1300 771 -2155 915 -323 54 -468 65 -885 66 -425 0 -530 -8 -820
-61 -177 -33 -258 -54 -478 -125 -101 -32 -191 -59 -200 -59 -47 1 138 106
408 231 465 216 800 305 1320 351 193 17 990 17 1205 0 672 -54 1249 -211
1815 -493 438 -219 773 -460 1126 -813 325 -326 523 -592 735 -990 41 -76 93
-160 116 -185 42 -45 43 -46 58 -26 45 57 486 910 655 1264 212 446 290 679
330 986 40 311 40 1398 -1 1642 -19 118 -58 262 -124 458 -336 1011 -920 1680
-1890 2170 -368 186 -730 310 -1148 395 -315 63 -581 90 -907 90 -317 0 -517
-23 -795 -91 -66 -16 -133 -29 -150 -28 -27 1 -24 3 30 30 165 79 464 177 681
223 377 79 853 93 1364 41 1330 -138 2322 -735 2951 -1776 377 -625 651 -1489
733 -2314 41 -406 58 -1102 37 -1470 -39 -674 -155 -1178 -398 -1740 -90 -208
-179 -425 -187 -457 -4 -16 -2 -28 3 -28 11 0 95 102 164 201 115 163 375 440
572 608 497 426 1094 768 3035 1734 1131 563 1729 876 2010 1050 631 391 1190
841 1577 1269 286 316 424 520 599 883 143 297 177 445 200 887 4 70 10 125
14 123 7 -4 11 -49 30 -310 16 -214 -14 -513 -75 -760 -109 -437 -353 -853
-729 -1243 -584 -605 -1478 -1198 -3126 -2072 -921 -488 -1388 -771 -1855
-1120 -724 -542 -1375 -1231 -1769 -1872 -102 -166 -282 -511 -317 -608 -92
-254 -113 -511 -129 -1605 -12 -858 -30 -3903 -30 -5020 1 -736 2 -818 16
-800 8 11 47 83 86 160 123 243 254 413 519 670 263 256 549 481 939 737 646
426 1184 712 2425 1293 467 219 1268 620 1560 781 754 416 1242 759 1631 1148
277 278 407 478 476 734 32 120 36 343 9 552 -22 170 -66 403 -100 523 -10 37
-17 67 -15 67 8 0 58 -109 100 -216 146 -374 206 -883 149 -1276 -29 -196 -93
-387 -199 -596 -111 -217 -245 -390 -488 -628 -278 -274 -391 -344 -1473 -914
-2083 -1097 -3192 -1783 -3920 -2425 -150 -133 -391 -378 -476 -485 -388 -488
-837 -1337 -1075 -2032 -208 -611 -303 -1184 -356 -2168 -18 -322 -18 -1923 0
-2265 49 -967 123 -1573 268 -2208 59 -257 111 -440 236 -824 l102 -313 38 0
38 0 0 76 c0 68 -10 110 -30 124 -25 17 -74 124 -113 245 -211 651 -354 1392
-426 2210 -52 586 -65 998 -58 1885 8 1044 37 1567 117 2132 77 536 222 1064
410 1488 154 346 418 873 497 990 15 23 35 55 44 71 9 16 21 34 27 41 5 7 22
38 38 68 30 60 206 316 289 420 584 734 1836 1560 4485 2955 397 209 809 432
874 472 21 14 79 44 130 67 90 42 93 45 319 276 264 270 367 389 478 554 198
294 285 556 309 942 17 263 -10 578 -71 834 -92 389 -255 736 -494 1055 -104
139 -159 202 -370 423 -146 154 -203 202 -237 202 -10 0 5 -105 18 -132 8 -15
74 -91 148 -170 165 -176 209 -231 304 -372 78 -117 196 -350 256 -503 120
-310 185 -650 173 -913 -13 -291 -69 -425 -294 -705 -105 -131 -335 -370 -395
-411 -24 -16 -47 -34 -53 -40 -5 -6 -24 -20 -40 -31 -17 -12 -48 -38 -70 -58
-203 -188 -843 -589 -1515 -947 -328 -175 -603 -312 -1023 -507 -1378 -642
-2235 -1096 -2830 -1498 -92 -62 -195 -127 -228 -143 -33 -17 -62 -37 -65 -45
-3 -8 -15 -17 -25 -20 -11 -4 -32 -19 -47 -34 -15 -16 -119 -115 -232 -220
-356 -333 -547 -542 -664 -723 -39 -59 -71 -106 -73 -104 -2 1 4 268 12 592
23 903 35 1966 35 3085 l0 1016 207 244 c451 533 610 754 752 1039 116 233
154 382 155 590 0 115 -4 151 -28 244 -66 259 -191 481 -376 667 -76 76 -116
100 -127 74 -12 -32 23 -90 106 -179 47 -52 100 -118 116 -147 30 -53 30 -56
29 -204 0 -123 -5 -173 -27 -275 -103 -489 -138 -675 -147 -796 -23 -304 -113
-480 -458 -896 l-180 -216 -7 426 c-9 495 0 1336 15 1467 41 356 298 870 715
1430 204 274 456 565 559 644 76 59 116 96 141 132 11 16 97 96 190 179 685
609 1183 930 2705 1740 771 410 1263 698 1695 992 255 173 422 285 492 330 72
47 524 458 657 599 279 296 550 700 661 987 106 277 152 621 142 1071 -7 332
-44 537 -141 785 -100 256 -205 420 -420 659 -207 228 -419 398 -700 563 -153
89 -184 104 -222 104 l-44 0 0 -54 c0 -42 4 -55 18 -60 9 -3 24 -9 32 -14 8
-5 40 -21 71 -36 76 -36 292 -210 435 -349 399 -385 671 -825 765 -1234 26
-116 36 -331 19 -459 -55 -447 -328 -955 -775 -1444 -111 -122 -459 -473 -497
-501 -17 -13 -126 -97 -242 -187 -477 -368 -775 -555 -1482 -927 -316 -167
-3291 -1651 -3319 -1656 -11 -2 -24 -14 -30 -27 -5 -12 -18 -22 -27 -22 -10 0
-23 -9 -30 -21 -7 -11 -35 -32 -62 -46 -71 -36 -385 -249 -571 -387 -211 -157
-325 -248 -470 -376 -159 -140 -246 -212 -252 -207 -2 3 27 87 65 188 168 448
213 699 243 1364 17 368 17 1338 1 1540 -31 379 -64 568 -184 1063 l-81 334
181 366 c99 202 206 427 237 501 244 578 345 1036 345 1570 0 437 -64 754
-227 1121 -148 333 -324 592 -568 835 -231 232 -469 396 -780 538 -144 66
-220 92 -306 107 -178 30 -845 20 -1014 -15 -300 -62 -609 -254 -787 -488 -73
-98 -148 -250 -180 -367 -32 -119 -32 -347 0 -463 108 -391 367 -691 667 -773
92 -25 319 -30 430 -9 317 59 576 217 704 430 96 159 156 423 106 465 -32 26
-57 -15 -69 -112 -12 -105 -120 -252 -240 -330 -109 -70 -371 -138 -535 -138
-251 0 -480 113 -616 305 -102 143 -139 264 -139 460 0 209 44 364 149 527
258 397 799 567 1412 443 366 -74 603 -204 869 -476 350 -359 589 -831 698
-1379 38 -191 49 -318 43 -475 -9 -206 -48 -352 -158 -600 -97 -215 -384 -715
-562 -979 l-81 -119 -29 34 c-15 19 -70 97 -122 174 -202 304 -502 628 -800
866 -478 380 -1052 629 -1710 742 -349 60 -672 82 -1105 74 -332 -6 -440 -15
-635 -49 -456 -79 -991 -328 -1345 -626 -289 -243 -544 -566 -688 -872 -52
-110 -122 -318 -148 -440 -30 -133 -27 -521 5 -730 83 -550 265 -930 598
-1250 141 -136 264 -223 443 -313 225 -113 482 -188 742 -216 143 -16 472 -13
628 4 814 94 1350 446 1672 1100 124 253 143 353 135 706 -5 250 -11 279 -77
418 -127 264 -311 436 -530 495 -74 20 -120 11 -120 -23 0 -28 21 -41 85 -51
77 -13 136 -49 225 -139 120 -121 159 -214 180 -427 13 -129 1 -285 -31 -406
-39 -145 -160 -321 -353 -513 -147 -146 -224 -202 -388 -284 -514 -257 -1296
-330 -1993 -186 -307 63 -560 178 -723 330 -268 248 -385 637 -369 1225 12
432 102 740 308 1050 79 120 305 347 439 443 191 136 433 237 768 322 271 69
347 78 647 78 603 -2 1070 -69 1540 -220 371 -119 767 -320 1077 -546 415
-302 785 -706 1055 -1152 96 -157 137 -255 130 -309 -9 -63 -112 -259 -268
-506 -658 -1043 -937 -1637 -1030 -2194 -29 -175 -35 -426 -15 -673 9 -111 16
-210 16 -219 0 -16 -20 1 -292 255 -343 321 -662 539 -1080 740 -621 299
-1283 464 -2048 512 -231 15 -694 6 -925 -17 -99 -10 -264 -17 -395 -18 -197
0 -238 2 -326 22 -134 29 -321 94 -414 144 -286 151 -626 495 -735 742 -109
247 -151 797 -86 1124 12 57 21 126 21 153 0 42 -3 49 -19 49 -49 0 -191 -189
-293 -388 -98 -194 -127 -322 -128 -564 -1 -606 243 -966 795 -1173 178 -67
366 -107 840 -181 37 -6 29 -10 -135 -64 -292 -96 -684 -275 -945 -431 -155
-93 -206 -115 -343 -150 -205 -52 -373 -72 -607 -72 -250 -1 -305 11 -480 98
-296 147 -577 437 -726 749 -74 156 -92 233 -92 401 0 112 4 156 22 220 26 99
83 219 149 316 129 192 121 245 -20 125 -139 -118 -329 -353 -398 -491 -63
-127 -74 -182 -73 -390 0 -251 27 -392 108 -560 113 -233 371 -427 660 -495
313 -74 964 -71 1395 7 32 6 22 -7 -144 -183 -252 -267 -379 -415 -495 -577
-88 -124 -159 -196 -270 -280 -169 -127 -375 -217 -581 -253 -130 -22 -371
-15 -485 15 -365 97 -611 425 -755 1010 -19 73 -42 143 -52 155 -18 21 -18 21
-33 1 -51 -65 -79 -279 -72 -545 7 -285 33 -377 162 -571 114 -171 258 -306
386 -363 235 -103 560 -61 914 118 77 39 225 127 328 195 103 68 190 121 194
117 10 -9 -14 -80 -74 -221 -141 -329 -213 -604 -244 -930 -15 -151 -6 -493
16 -635 50 -324 138 -604 277 -880 205 -408 522 -716 941 -915 232 -111 357
-129 877 -129 374 -1 492 9 719 60 318 71 655 221 891 395 116 85 330 303 413
419 77 108 194 337 232 454 55 171 69 265 69 486 1 229 -12 333 -69 555 -88
343 -217 553 -408 659 -67 37 -137 57 -137 39 0 -19 53 -80 125 -143 200 -176
277 -330 291 -584 12 -214 -27 -423 -109 -580 -122 -234 -434 -553 -727 -741
-224 -144 -611 -292 -955 -365 -205 -43 -637 -36 -940 15 -389 66 -678 212
-913 459 -338 356 -497 850 -461 1431 55 874 509 1695 1199 2167 502 344 1004
478 1785 478 1394 -1 2509 -415 3330 -1235 474 -473 809 -1002 1054 -1658 226
-606 369 -1408 421 -2352 16 -285 22 -750 13 -925 l-8 -154 -241 364 c-132
201 -262 401 -289 444 -81 135 -143 272 -160 354 -60 288 -104 437 -210 707
-112 286 -332 754 -370 785 -20 17 -28 7 -48 -55 -17 -56 -13 -329 7 -489 21
-163 60 -364 87 -447 46 -141 170 -335 427 -667 408 -525 683 -938 742 -1117
33 -100 40 -208 40 -660 0 -927 -47 -2091 -120 -2970 -18 -210 -85 -864 -93
-905 -2 -8 -36 52 -76 134 -142 292 -265 473 -609 898 -94 117 -207 303 -301
498 -119 246 -147 360 -176 700 -48 567 -105 805 -262 1084 -143 254 -434 561
-506 533 -15 -6 -15 -11 2 -59 10 -30 46 -114 81 -188 104 -224 125 -303 209
-756 34 -186 65 -263 261 -664 171 -350 370 -774 370 -789 0 -12 -525 517
-703 709 -296 318 -544 607 -703 816 -341 453 -526 944 -541 1439 -14 466 112
825 412 1175 147 172 227 300 258 415 61 224 135 830 105 860 -41 42 -209
-143 -364 -401 -98 -163 -130 -262 -169 -513 -33 -214 -87 -425 -185 -715
-119 -353 -115 -324 -115 -901 0 -576 0 -569 117 -894 93 -258 160 -462 155
-468 -3 -2 -45 16 -93 40 -513 257 -940 284 -1336 86 -223 -111 -354 -258
-419 -469 -21 -65 -24 -96 -24 -235 0 -160 0 -160 32 -228 94 -198 317 -436
555 -591 102 -67 171 -99 251 -116 61 -14 107 -4 107 23 0 19 -53 66 -143 127
-167 114 -280 283 -344 517 -25 88 -27 114 -27 253 1 126 5 170 23 234 65 242
193 421 357 502 77 38 80 39 189 39 66 -1 144 -8 195 -18 117 -25 305 -89 418
-142 193 -91 281 -169 432 -376 80 -111 123 -179 315 -494 137 -224 364 -566
520 -785 136 -191 223 -319 243 -357 11 -21 11 -21 -20 -13 -17 5 -79 32 -137
59 -213 100 -344 125 -641 125 -189 1 -226 -2 -303 -22 -258 -65 -528 -269
-672 -507 -79 -131 -122 -333 -112 -524 17 -335 189 -695 430 -903 294 -253
618 -307 932 -154 150 74 320 213 300 247 -11 17 -53 5 -178 -50 -135 -60
-212 -75 -330 -67 -189 14 -240 33 -337 122 -181 169 -316 399 -381 652 -82
322 -53 618 90 900 62 124 145 184 307 223 71 18 119 22 239 22 236 0 424 -42
620 -138 307 -150 453 -294 721 -712 482 -750 757 -1462 928 -2400 91 -498 91
-487 90 -3468 0 -3591 -15 -4110 -150 -5340 -174 -1590 -389 -2122 -950 -2353
-87 -36 -234 -75 -389 -102 -285 -50 -419 -115 -587 -287 -148 -151 -278 -342
-573 -843 -184 -312 -247 -409 -352 -545 -206 -265 -404 -422 -752 -599 -637
-323 -1626 -625 -2545 -776 -518 -86 -476 -85 -4211 -85 -3759 0 -3679 -2
-4231 90 -920 152 -1808 421 -2443 740 -586 294 -770 479 -1191 1195 -422 717
-608 939 -867 1038 -87 33 -152 49 -358 87 -578 109 -841 367 -1019 1006 -225
809 -346 2114 -406 4404 -32 1211 -38 3638 -11 4360 59 1570 192 2219 646
3162 414 858 794 1328 1194 1473 181 66 379 95 608 88 133 -4 167 -9 218 -28
137 -52 228 -139 301 -285 64 -131 85 -221 91 -401 6 -169 -4 -264 -44 -419
-63 -243 -185 -471 -327 -610 -145 -143 -314 -204 -489 -175 -86 13 -136 30
-269 91 -123 56 -158 62 -158 25 0 -72 305 -249 540 -313 178 -49 398 0 594
131 108 72 182 140 261 239 212 265 313 584 285 905 -22 248 -107 422 -300
611 -152 150 -286 230 -455 273 -81 21 -113 23 -310 22 -316 0 -439 -24 -657
-124 -70 -33 -139 -62 -154 -66 -24 -6 -25 -5 -14 15 6 12 50 77 97 144 265
375 602 888 814 1239 224 371 287 452 411 532 133 84 337 171 512 216 148 38
345 57 416 40 64 -15 144 -74 233 -170 80 -86 156 -230 188 -355 53 -210 26
-500 -63 -680 -98 -195 -294 -405 -378 -405 -38 0 -63 -22 -58 -50 12 -84 252
-14 449 131 46 34 134 112 194 173 167 169 285 347 320 483 42 160 -8 379
-125 554 -55 82 -180 204 -254 248 -181 108 -461 164 -705 141 -239 -22 -391
-67 -643 -192 -99 -48 -181 -88 -184 -88 -10 0 1 30 71 190 130 296 203 543
242 820 13 98 17 198 18 460 0 402 2 393 -126 773 -111 329 -166 541 -178 685
-22 249 -68 385 -214 627 -115 192 -258 375 -293 375 -26 0 -34 -49 -34 -199
0 -307 52 -677 113 -804 39 -82 149 -232 261 -357 255 -283 380 -601 393 -995
6 -192 -11 -342 -61 -537 -174 -670 -488 -1115 -1482 -2099 -143 -141 -274
-264 -293 -274 l-34 -17 6 43 c3 27 81 195 211 458 259 526 297 623 346 886
65 347 102 477 195 675 95 203 110 260 68 260 -43 0 -263 -213 -375 -362 -237
-315 -347 -669 -348 -1120 -1 -327 -21 -417 -167 -747 -113 -255 -241 -467
-409 -677 -237 -296 -390 -524 -524 -783 -52 -100 -96 -176 -97 -169 -16 89
-105 1092 -128 1433 -41 614 -49 847 -89 2455 l-14 545 76 145 c125 240 309
517 637 960 291 393 455 644 511 780 52 128 97 425 113 740 18 370 -12 387
-159 92 -198 -399 -500 -1250 -500 -1412 0 -69 -60 -175 -272 -477 -158 -227
-277 -409 -348 -535 -24 -43 -45 -76 -47 -74 -6 5 17 1006 27 1226 83 1698
485 2840 1319 3747 646 703 1538 1151 2596 1302 311 45 474 55 865 55 298 0
405 -3 520 -17 369 -45 626 -121 955 -282 268 -131 455 -264 666 -474 494
-495 824 -1227 874 -1936 23 -328 -96 -766 -294 -1085 -115 -184 -300 -384
-449 -483 -395 -264 -1029 -362 -1627 -252 -531 98 -1028 348 -1363 684 -420
422 -533 987 -277 1383 26 39 95 122 155 184 145 151 148 197 10 117 -160 -93
-320 -308 -403 -538 -48 -135 -52 -188 -51 -645 0 -496 0 -496 106 -702 421
-827 1198 -1199 2399 -1149 293 13 376 23 493 62 746 248 1282 983 1398 1919
21 172 16 555 -11 730 -44 293 -115 531 -247 833 -41 93 -74 170 -74 173 0 9
70 -32 230 -136 238 -155 358 -219 525 -282 373 -139 690 -87 941 154 130 125
241 304 278 451 48 187 43 625 -9 802 -20 69 -30 83 -51 70 -23 -14 -47 -80
-88 -237 -120 -460 -304 -736 -592 -885 -285 -148 -662 -125 -1037 63 -169 86
-290 195 -467 424 -164 212 -269 330 -474 538 -105 105 -188 192 -185 192 2 0
58 -7 124 -15 422 -51 706 -69 886 -55 425 32 715 133 912 319 192 182 277
400 293 759 10 214 -29 345 -160 541 -122 183 -350 431 -397 431 -32 0 -25
-18 128 -311 33 -64 70 -152 83 -200 20 -73 22 -100 17 -209 -7 -167 -37 -275
-127 -455 -85 -171 -164 -278 -307 -415 -162 -157 -346 -269 -568 -347 -76
-27 -88 -28 -255 -27 -192 1 -510 36 -654 73 -89 24 -223 85 -358 164 -229
134 -523 267 -871 392 -128 46 -225 86 -217 88 8 3 80 13 160 22 545 63 895
188 1144 408 171 151 332 457 367 696 16 111 6 327 -21 453 -38 182 -122 388
-211 519 -36 53 -209 232 -217 225 -2 -2 6 -70 17 -150 46 -334 52 -610 16
-850 -45 -300 -165 -536 -385 -756 -214 -214 -480 -364 -810 -457 -114 -33
-139 -36 -290 -40 -105 -3 -237 1 -365 11 -635 52 -1125 40 -1645 -40 -934
-143 -1761 -511 -2410 -1071 -58 -50 -169 -152 -248 -228 -79 -75 -145 -135
-146 -133 -2 1 4 125 12 273 13 221 13 298 4 425 -28 370 -130 676 -408 1231
-213 427 -391 739 -732 1284 l-225 359 81 161 c350 693 914 1245 1650 1614
520 260 1077 408 1707 452 247 17 680 7 858 -21 785 -120 1356 -559 1610
-1240 81 -218 117 -426 117 -683 0 -404 -84 -740 -245 -982 -207 -311 -549
-480 -1130 -561 -183 -25 -610 -30 -805 -10 -786 83 -1404 436 -1615 924 -55
126 -67 201 -67 407 1 401 66 525 345 663 128 63 151 86 102 98 -54 13 -133
-2 -212 -41 -149 -74 -334 -288 -419 -485 -291 -671 185 -1650 970 -1993 473
-208 1049 -270 1581 -172 673 125 1094 434 1375 1010 148 303 225 590 252 938
20 268 -12 518 -99 781 -76 228 -191 442 -356 661 -92 121 -354 378 -492 481
-433 324 -916 505 -1550 581 -210 25 -802 25 -1020 0 -897 -104 -1591 -374
-2193 -855 -281 -225 -512 -475 -722 -782 -47 -69 -107 -147 -133 -175 l-49
-50 -29 35 c-132 155 -622 1052 -693 1267 -42 129 -49 203 -43 488 5 276 20
401 72 605 84 332 251 670 464 939 87 111 288 303 399 381 324 230 631 330
1014 330 251 0 459 -45 649 -141 374 -187 561 -498 547 -904 -4 -106 -10 -144
-31 -208 -83 -243 -273 -420 -524 -489 -64 -17 -105 -21 -228 -21 -130 0 -163
4 -249 26 -118 32 -238 89 -318 152 -89 70 -137 142 -178 264 -29 88 -39 107
-57 109 -71 10 -10 -284 93 -446 85 -132 192 -228 340 -304 186 -96 354 -131
624 -132 l185 -1 69 33 c383 181 649 675 596 1107 -30 244 -122 438 -288 602
-85 84 -233 186 -347 239 -164 76 -395 138 -605 164 -125 15 -518 11 -615 -6z
m1615 -576 c61 -90 114 -194 158 -308 39 -102 42 -252 8 -393 -14 -59 -40
-141 -57 -182 -86 -207 -331 -490 -499 -575 -72 -37 -138 -50 -253 -50 -171 0
-321 38 -514 130 -113 53 -229 130 -283 185 -30 31 -32 35 -13 35 11 0 53 -13
92 -30 384 -158 643 -169 901 -40 193 97 362 277 418 445 46 135 52 328 17
514 -23 119 -50 199 -116 348 -33 72 -59 135 -59 139 0 21 148 -140 200 -218z
m19864 25 c-64 -147 -83 -223 -95 -391 -12 -176 0 -342 31 -426 41 -108 152
-252 265 -343 147 -118 314 -175 515 -176 155 0 212 10 418 75 89 28 166 48
170 44 16 -17 -116 -123 -214 -173 -194 -100 -365 -137 -599 -131 -146 3 -152
4 -215 35 -234 116 -459 414 -541 719 -33 120 -33 333 0 427 51 150 205 415
274 473 l32 27 3 -26 c2 -15 -17 -72 -44 -134z m-22665 -185 c-12 -24 -50 -91
-85 -150 -228 -386 -379 -825 -429 -1253 -42 -364 5 -578 232 -1045 106 -219
168 -333 326 -600 61 -102 139 -244 175 -317 l64 -131 -151 -344 c-84 -188
-156 -346 -160 -350 -7 -8 -124 186 -185 310 -61 121 -154 337 -232 535 -182
459 -268 776 -309 1137 -24 201 -17 563 14 735 82 458 253 846 571 1295 81
114 168 220 181 220 5 0 0 -19 -12 -42z m25512 -170 c65 -75 168 -225 248
-361 268 -456 394 -986 361 -1513 -29 -468 -152 -931 -391 -1474 -78 -177
-256 -534 -306 -613 l-30 -48 -14 23 c-22 35 -120 245 -224 479 l-94 212 166
276 c295 488 530 930 588 1103 44 134 56 379 35 688 -33 468 -139 791 -409
1255 -80 139 -81 140 -34 90 25 -27 72 -80 104 -117z m-32675 -1170 c-31 -40
-108 -136 -172 -213 -118 -143 -254 -336 -301 -428 -14 -29 -54 -116 -89 -195
-64 -146 -91 -198 -101 -188 -10 9 17 95 57 184 83 185 214 406 343 582 69 93
306 345 315 335 3 -3 -20 -37 -52 -77z m40036 -378 c114 -160 295 -541 313
-655 l6 -40 -20 36 c-11 20 -32 68 -46 105 -93 246 -314 588 -572 881 -127
145 -115 136 73 -52 111 -112 204 -216 246 -275z m-10311 -2255 c95 -442 -54
-907 -420 -1310 -310 -342 -691 -530 -1216 -601 -160 -22 -597 -25 -750 -6
-577 74 -981 292 -1271 687 -103 139 -233 360 -220 373 3 3 66 -53 139 -124
185 -182 294 -251 516 -328 240 -83 484 -115 933 -123 458 -8 743 18 1018 93
490 133 924 454 1081 799 70 156 99 334 100 627 l0 183 36 -90 c19 -49 44
-130 54 -180z m-19671 -245 c16 -128 50 -230 110 -330 171 -285 371 -465 696
-628 347 -174 668 -232 1278 -232 494 0 787 35 1050 127 220 76 367 172 558
366 l120 122 -52 -100 c-306 -582 -770 -902 -1436 -990 -268 -36 -619 -29
-892 16 -240 40 -473 118 -666 223 -494 270 -859 828 -892 1366 -8 134 7 249
54 415 l37 130 12 -195 c6 -107 17 -238 23 -290z m13921 -193 c-49 -447 58
-864 303 -1190 82 -109 254 -270 403 -375 128 -92 187 -142 166 -142 -35 0
-226 59 -347 106 -175 69 -271 119 -359 186 -182 136 -342 410 -397 678 -29
139 -24 353 9 475 46 163 165 448 210 499 15 17 16 13 19 -60 2 -44 -2 -123
-7 -177z m-15953 86 c43 -65 157 -244 252 -398 594 -960 901 -1622 961 -2070
13 -100 6 -605 -11 -800 -16 -179 -23 -195 -171 -400 -87 -119 -175 -260 -256
-408 -107 -197 -122 -218 -143 -207 -9 5 -33 33 -51 62 -31 48 -34 59 -33 128
0 53 13 124 42 240 142 567 120 964 -85 1485 -103 264 -245 538 -543 1055
-129 223 -254 473 -272 543 -10 40 -10 64 5 149 45 264 188 738 222 738 3 0
40 -53 83 -117z m7735 99 c52 -58 156 -342 182 -500 25 -149 17 -371 -18 -505
-53 -198 -158 -377 -307 -521 -170 -163 -330 -245 -650 -331 -100 -26 -145
-32 -135 -15 3 5 60 46 126 91 324 219 603 556 687 830 30 98 42 228 51 589
10 367 18 413 64 362z m16040 -68 c36 -99 150 -524 167 -620 7 -39 11 -109 8
-155 -6 -106 -35 -171 -210 -464 -372 -623 -544 -961 -649 -1275 -91 -275
-114 -442 -106 -789 6 -260 16 -354 68 -605 39 -192 37 -265 -11 -379 l-33
-78 -35 63 c-196 351 -307 529 -453 725 l-99 133 0 403 c0 611 22 769 151
1097 150 383 648 1281 1032 1860 100 152 116 172 131 167 6 -2 24 -39 39 -83z
m-24016 -1154 c410 -659 673 -1195 790 -1610 34 -118 36 -136 41 -308 5 -198
-8 -394 -39 -617 -17 -123 -57 -296 -78 -333 -7 -12 -255 444 -394 723 -233
469 -350 833 -402 1245 -19 154 -34 517 -35 835 0 203 2 237 14 225 7 -8 54
-80 103 -160z m24244 54 c11 -47 10 -396 -1 -574 -39 -641 -143 -986 -544
-1805 -267 -544 -303 -581 -350 -355 -88 427 -93 766 -15 1075 51 204 137 422
280 707 249 498 563 1002 614 985 5 -2 13 -17 16 -33z m-10111 -96 c-27 -95
-36 -245 -20 -345 59 -374 331 -773 690 -1010 120 -80 160 -112 160 -130 0
-12 -8 -14 -46 -8 -128 19 -406 110 -524 171 -166 85 -267 191 -359 378 -96
194 -114 298 -92 531 18 202 50 293 157 455 39 61 50 71 52 53 2 -12 -6 -55
-18 -95z m-4076 -15 c43 -59 98 -194 121 -293 22 -98 22 -279 0 -385 -47 -226
-155 -421 -299 -537 -76 -61 -251 -148 -391 -193 -91 -30 -383 -90 -393 -80
-1 1 59 42 134 90 188 121 292 205 405 322 144 151 234 295 293 473 46 139 57
216 62 415 7 264 9 269 68 188z m3226 -1973 c56 -158 164 -390 225 -485 138
-217 371 -352 675 -394 68 -9 329 -30 397 -32 42 0 -280 -126 -384 -149 -108
-24 -272 -26 -362 -5 -220 52 -428 244 -531 492 -64 153 -110 361 -110 500 0
62 27 229 36 220 2 -1 26 -68 54 -147z m-2374 58 c11 -34 7 -238 -6 -326 -44
-300 -179 -541 -386 -688 -172 -123 -350 -159 -559 -113 -119 25 -180 46 -329
112 l-119 52 194 7 c404 14 584 74 765 253 137 136 232 291 358 588 33 75 63
137 67 137 4 0 11 -10 15 -22z m-5906 -2355 c27 -191 135 -447 253 -603 73
-96 227 -251 332 -336 253 -202 609 -386 945 -487 419 -127 899 -155 1290 -76
367 74 691 242 938 488 134 133 229 266 346 483 40 75 66 112 66 94 0 -19 -60
-187 -101 -284 -173 -405 -364 -693 -586 -886 -415 -360 -932 -490 -1623 -410
-351 40 -623 117 -905 254 -371 181 -651 444 -838 790 -110 201 -177 461 -177
683 0 98 30 377 40 377 4 0 13 -39 20 -87z m14164 36 c15 -78 -1 -487 -25
-628 -26 -151 -143 -408 -262 -573 -336 -469 -886 -758 -1622 -854 -163 -21
-549 -25 -680 -6 -373 53 -681 193 -952 432 -276 243 -586 751 -638 1045 -6
36 -5 38 8 25 9 -8 52 -73 96 -143 110 -174 157 -234 281 -357 260 -259 600
-426 1010 -496 148 -25 502 -30 680 -10 575 67 1067 261 1456 573 283 229 493
535 574 838 42 158 51 185 59 185 5 0 11 -14 15 -31z m2592 -1380 c79 -186
120 -303 159 -453 71 -277 52 -309 -82 -144 -221 272 -308 510 -343 943 -6 72
-12 155 -15 185 -5 53 -2 49 110 -172 63 -125 140 -287 171 -359z m-19137 351
c1 -133 -26 -318 -64 -439 -56 -177 -253 -521 -350 -610 -67 -62 -75 -48 -46
82 51 228 191 608 353 956 91 197 93 201 100 164 4 -21 7 -90 7 -153z m-4150
-107 c67 -221 140 -557 201 -933 21 -133 26 -250 10 -250 -38 0 -226 390 -295
614 -49 154 -44 305 17 544 18 67 33 122 34 122 2 0 17 -44 33 -97z m27241 16
c6 -11 16 -92 22 -180 12 -179 0 -400 -27 -504 -29 -111 -224 -475 -255 -475
-15 0 -12 144 5 263 49 328 166 823 212 893 19 29 29 30 43 3z m-21756 -219
c149 -191 264 -449 305 -685 9 -48 41 -363 41 -398 0 -13 -178 156 -228 216
-86 103 -131 219 -166 427 -15 91 -66 529 -66 560 1 16 41 -27 114 -120z
m16293 -46 c-13 -213 -75 -518 -130 -636 -30 -66 -157 -235 -231 -308 l-56
-54 0 56 c0 138 62 506 103 606 48 119 197 345 271 410 20 17 39 32 43 32 3 0
3 -48 0 -106z m-16887 -2894 c0 -5 -13 -42 -29 -82 -51 -129 -80 -252 -131
-539 -39 -223 -78 -371 -127 -484 -38 -90 -219 -415 -230 -415 -4 0 -3 80 0
178 13 346 79 623 222 919 71 148 128 241 219 355 58 74 76 90 76 68z m17473
-75 c51 -47 146 -195 217 -340 108 -220 181 -479 196 -695 8 -109 -4 -376 -16
-363 -4 4 -48 87 -98 185 -116 226 -161 363 -207 630 -38 215 -90 444 -124
542 -32 90 -28 96 32 41z m-14983 -634 c232 -165 340 -398 297 -641 -37 -211
-155 -390 -367 -557 -58 -45 -108 -82 -113 -83 -4 0 20 55 54 121 105 210 143
358 143 559 0 195 -29 316 -125 522 -33 70 -62 142 -66 159 l-6 33 59 -34 c32
-18 88 -54 124 -79z m12610 95 c0 -7 -32 -78 -70 -156 -80 -162 -112 -262
-130 -404 -29 -231 13 -449 140 -721 28 -59 49 -110 47 -112 -8 -7 -290 300
-349 380 -245 332 -200 594 154 894 129 109 208 155 208 119z m1070 -2238 c0
-18 -9 -70 -20 -116 -44 -182 -51 -514 -15 -717 36 -211 115 -414 216 -560 28
-41 91 -113 139 -158 101 -97 199 -152 335 -192 50 -14 95 -28 100 -30 6 -3
-62 -3 -150 0 -250 8 -330 35 -480 164 -367 313 -550 831 -419 1179 64 170
245 462 286 462 4 0 8 -15 8 -32z m-14879 -60 c103 -105 200 -268 235 -394 22
-79 30 -304 14 -403 -57 -351 -306 -707 -598 -855 -93 -47 -190 -66 -377 -73
-93 -3 -168 -3 -165 -1 3 3 62 22 132 41 70 20 151 48 180 63 454 228 696 917
538 1529 -16 61 -32 120 -36 133 -11 38 13 25 77 -40z"/>
</g>
</svg>
